<svg width="500" height="130" viewBox="0 0 500 130" fill="none" xmlns="http://www.w3.org/2000/svg">
<g clip-path="url(#clip0_1_2)">
<g filter="url(#filter0_d_1_2)">
<mask id="path-1-inside-1_1_2" fill="white">
<path d="M49.9375 101.312C40.8958 101.312 33.1875 99.4375 26.8125 95.6875C20.4375 91.9375 15.5417 86.7292 12.125 80.0625C8.75 73.3958 7.0625 65.6667 7.0625 56.875V53.75C7.0625 44.6667 8.75 36.6667 12.125 29.75C15.5 22.8333 20.2708 17.4375 26.4375 13.5625C32.6458 9.64583 39.9792 7.6875 48.4375 7.6875C54.9792 7.6875 61.125 8.58333 66.875 10.375C72.625 12.1667 77.625 14.8542 81.875 18.4375V38.625H68.375L65.8125 26.4375C64.1875 25.0208 62 23.8958 59.25 23.0625C56.5 22.1875 53.3542 21.75 49.8125 21.75C44.7292 21.75 40.3333 23.1042 36.625 25.8125C32.9583 28.4792 30.1458 32.2083 28.1875 37C26.2292 41.75 25.25 47.2917 25.25 53.625V56.875C25.25 63.0417 26.2083 68.4167 28.125 73C30.0833 77.5417 32.9375 81.0625 36.6875 83.5625C40.4375 86.0625 45.0417 87.3125 50.5 87.3125C53.7083 87.3125 56.6458 87.0208 59.3125 86.4375C62.0208 85.8125 64.25 85.0625 66 84.1875V68.75L53 67.75V54.9375H84.3125V91.75C80.2708 94.625 75.3958 96.9375 69.6875 98.6875C64.0208 100.438 57.4375 101.312 49.9375 101.312ZM95.3125 100V89.0625L104.062 87.1875V45.25L94.375 43.375V32.375H121.062L121.75 40.75L121.875 42.25C123.542 38.5833 125.604 35.8125 128.062 33.9375C130.521 32.0625 133.458 31.125 136.875 31.125C137.958 31.125 139.146 31.2292 140.438 31.4375C141.729 31.6042 142.875 31.8333 143.875 32.125L141.938 48.9375L132.875 48.4375C130.292 48.3125 128.188 48.75 126.562 49.75C124.979 50.75 123.562 52.1875 122.312 54.0625V87.1875L131.062 89.0625V100H95.3125ZM170.688 101.312C163.979 101.312 158.646 99.5208 154.688 95.9375C150.729 92.3125 148.75 87.3958 148.75 81.1875C148.75 74.8125 151.333 69.6458 156.5 65.6875C161.667 61.6875 169.229 59.6875 179.188 59.6875H188.125V54.6875C188.125 51.4375 187.167 48.8125 185.25 46.8125C183.375 44.7708 180.542 43.75 176.75 43.75C174.792 43.75 173.042 44 171.5 44.5C169.958 44.9583 168.542 45.625 167.25 46.5L165.812 55.4375H152.688L152.438 37.875C155.979 35.875 159.812 34.25 163.938 33C168.062 31.75 172.667 31.125 177.75 31.125C186.583 31.125 193.562 33.1875 198.688 37.3125C203.812 41.3958 206.375 47.25 206.375 54.875V82.75C206.375 83.6667 206.375 84.5833 206.375 85.5C206.417 86.375 206.5 87.2292 206.625 88.0625L213.688 89.0625V100H191.062C190.604 98.8333 190.146 97.5833 189.688 96.25C189.229 94.9167 188.896 93.5833 188.688 92.25C186.521 95 183.958 97.2083 181 98.875C178.083 100.5 174.646 101.312 170.688 101.312ZM175.562 87.8125C178.104 87.8125 180.521 87.25 182.812 86.125C185.104 84.9583 186.875 83.4375 188.125 81.5625V70.875H179.125C175.125 70.875 172.083 71.7917 170 73.625C167.958 75.4583 166.938 77.6667 166.938 80.25C166.938 82.6667 167.688 84.5417 169.188 85.875C170.729 87.1667 172.854 87.8125 175.562 87.8125ZM219.75 126V115L228.562 113.125V45.25L218.812 43.375V32.375H245.312L246.188 40.25C248.188 37.3333 250.604 35.0833 253.438 33.5C256.271 31.9167 259.646 31.125 263.562 31.125C269.021 31.125 273.688 32.625 277.562 35.625C281.438 38.5833 284.396 42.7292 286.438 48.0625C288.521 53.3958 289.562 59.625 289.562 66.75V68.0625C289.562 74.7292 288.521 80.5625 286.438 85.5625C284.396 90.5208 281.417 94.3958 277.5 97.1875C273.625 99.9375 268.938 101.312 263.438 101.312C259.812 101.312 256.604 100.667 253.812 99.375C251.062 98.0417 248.708 96.1042 246.75 93.5625V113.125L255.562 115V126H219.75ZM258 87.3125C262.667 87.3125 266.042 85.5833 268.125 82.125C270.25 78.6667 271.312 73.9792 271.312 68.0625V66.75C271.312 62.4583 270.833 58.7292 269.875 55.5625C268.917 52.3542 267.438 49.8542 265.438 48.0625C263.479 46.2292 260.958 45.3125 257.875 45.3125C255.375 45.3125 253.167 45.875 251.25 47C249.375 48.125 247.875 49.7292 246.75 51.8125V81.4375C247.875 83.3542 249.375 84.8125 251.25 85.8125C253.167 86.8125 255.417 87.3125 258 87.3125ZM295.438 100V89.0625L304.25 87.1875V15.375L294.5 13.5V2.5H322.438V41C324.562 37.875 327.188 35.4583 330.312 33.75C333.479 32 337.062 31.125 341.062 31.125C347.854 31.125 353.229 33.3958 357.188 37.9375C361.188 42.4375 363.188 49.4167 363.188 58.875V87.1875L371.938 89.0625V100H337.062V89.0625L344.938 87.1875V58.75C344.938 53.875 344.021 50.4167 342.188 48.375C340.354 46.3333 337.667 45.3125 334.125 45.3125C331.667 45.3125 329.417 45.8333 327.375 46.875C325.375 47.875 323.729 49.3542 322.438 51.3125V87.1875L330.312 89.0625V100H295.438ZM409.438 101.312C402.979 101.312 397.333 99.8958 392.5 97.0625C387.667 94.1875 383.917 90.25 381.25 85.25C378.625 80.25 377.312 74.5417 377.312 68.125V65.625C377.312 58.9167 378.562 52.9792 381.062 47.8125C383.562 42.6042 387.083 38.5208 391.625 35.5625C396.208 32.6042 401.604 31.125 407.812 31.125C413.938 31.125 419.083 32.3333 423.25 34.75C427.417 37.1667 430.583 40.6458 432.75 45.1875C434.917 49.7292 436 55.2292 436 61.6875V71.625H396.25L396.125 72C396.375 74.9583 397.104 77.6042 398.312 79.9375C399.562 82.2292 401.312 84.0417 403.562 85.375C405.812 86.6667 408.542 87.3125 411.75 87.3125C415.083 87.3125 418.188 86.8958 421.062 86.0625C423.979 85.1875 426.812 83.9167 429.562 82.25L434.5 93.5C431.708 95.75 428.188 97.625 423.938 99.125C419.729 100.583 414.896 101.312 409.438 101.312ZM396.375 59.5625H418.938V57.9375C418.938 55.1875 418.562 52.8333 417.812 50.875C417.104 48.875 415.938 47.3333 414.312 46.25C412.729 45.1667 410.667 44.625 408.125 44.625C405.708 44.625 403.667 45.2708 402 46.5625C400.333 47.8125 399.021 49.5417 398.062 51.75C397.146 53.9583 396.521 56.4583 396.188 59.25L396.375 59.5625ZM445.812 100V89.0625L454.562 87.1875V45.25L444.875 43.375V32.375H471.562L472.25 40.75L472.375 42.25C474.042 38.5833 476.104 35.8125 478.562 33.9375C481.021 32.0625 483.958 31.125 487.375 31.125C488.458 31.125 489.646 31.2292 490.938 31.4375C492.229 31.6042 493.375 31.8333 494.375 32.125L492.438 48.9375L483.375 48.4375C480.792 48.3125 478.688 48.75 477.062 49.75C475.479 50.75 474.062 52.1875 472.812 54.0625V87.1875L481.562 89.0625V100H445.812Z"/>
</mask>
<path d="M49.9375 101.312C40.8958 101.312 33.1875 99.4375 26.8125 95.6875C20.4375 91.9375 15.5417 86.7292 12.125 80.0625C8.75 73.3958 7.0625 65.6667 7.0625 56.875V53.75C7.0625 44.6667 8.75 36.6667 12.125 29.75C15.5 22.8333 20.2708 17.4375 26.4375 13.5625C32.6458 9.64583 39.9792 7.6875 48.4375 7.6875C54.9792 7.6875 61.125 8.58333 66.875 10.375C72.625 12.1667 77.625 14.8542 81.875 18.4375V38.625H68.375L65.8125 26.4375C64.1875 25.0208 62 23.8958 59.25 23.0625C56.5 22.1875 53.3542 21.75 49.8125 21.75C44.7292 21.75 40.3333 23.1042 36.625 25.8125C32.9583 28.4792 30.1458 32.2083 28.1875 37C26.2292 41.75 25.25 47.2917 25.25 53.625V56.875C25.25 63.0417 26.2083 68.4167 28.125 73C30.0833 77.5417 32.9375 81.0625 36.6875 83.5625C40.4375 86.0625 45.0417 87.3125 50.5 87.3125C53.7083 87.3125 56.6458 87.0208 59.3125 86.4375C62.0208 85.8125 64.25 85.0625 66 84.1875V68.75L53 67.75V54.9375H84.3125V91.75C80.2708 94.625 75.3958 96.9375 69.6875 98.6875C64.0208 100.438 57.4375 101.312 49.9375 101.312ZM95.3125 100V89.0625L104.062 87.1875V45.25L94.375 43.375V32.375H121.062L121.75 40.75L121.875 42.25C123.542 38.5833 125.604 35.8125 128.062 33.9375C130.521 32.0625 133.458 31.125 136.875 31.125C137.958 31.125 139.146 31.2292 140.438 31.4375C141.729 31.6042 142.875 31.8333 143.875 32.125L141.938 48.9375L132.875 48.4375C130.292 48.3125 128.188 48.75 126.562 49.75C124.979 50.75 123.562 52.1875 122.312 54.0625V87.1875L131.062 89.0625V100H95.3125ZM170.688 101.312C163.979 101.312 158.646 99.5208 154.688 95.9375C150.729 92.3125 148.75 87.3958 148.75 81.1875C148.75 74.8125 151.333 69.6458 156.5 65.6875C161.667 61.6875 169.229 59.6875 179.188 59.6875H188.125V54.6875C188.125 51.4375 187.167 48.8125 185.25 46.8125C183.375 44.7708 180.542 43.75 176.75 43.75C174.792 43.75 173.042 44 171.5 44.5C169.958 44.9583 168.542 45.625 167.25 46.5L165.812 55.4375H152.688L152.438 37.875C155.979 35.875 159.812 34.25 163.938 33C168.062 31.75 172.667 31.125 177.75 31.125C186.583 31.125 193.562 33.1875 198.688 37.3125C203.812 41.3958 206.375 47.25 206.375 54.875V82.75C206.375 83.6667 206.375 84.5833 206.375 85.5C206.417 86.375 206.5 87.2292 206.625 88.0625L213.688 89.0625V100H191.062C190.604 98.8333 190.146 97.5833 189.688 96.25C189.229 94.9167 188.896 93.5833 188.688 92.25C186.521 95 183.958 97.2083 181 98.875C178.083 100.5 174.646 101.312 170.688 101.312ZM175.562 87.8125C178.104 87.8125 180.521 87.25 182.812 86.125C185.104 84.9583 186.875 83.4375 188.125 81.5625V70.875H179.125C175.125 70.875 172.083 71.7917 170 73.625C167.958 75.4583 166.938 77.6667 166.938 80.25C166.938 82.6667 167.688 84.5417 169.188 85.875C170.729 87.1667 172.854 87.8125 175.562 87.8125ZM219.75 126V115L228.562 113.125V45.25L218.812 43.375V32.375H245.312L246.188 40.25C248.188 37.3333 250.604 35.0833 253.438 33.5C256.271 31.9167 259.646 31.125 263.562 31.125C269.021 31.125 273.688 32.625 277.562 35.625C281.438 38.5833 284.396 42.7292 286.438 48.0625C288.521 53.3958 289.562 59.625 289.562 66.75V68.0625C289.562 74.7292 288.521 80.5625 286.438 85.5625C284.396 90.5208 281.417 94.3958 277.5 97.1875C273.625 99.9375 268.938 101.312 263.438 101.312C259.812 101.312 256.604 100.667 253.812 99.375C251.062 98.0417 248.708 96.1042 246.75 93.5625V113.125L255.562 115V126H219.75ZM258 87.3125C262.667 87.3125 266.042 85.5833 268.125 82.125C270.25 78.6667 271.312 73.9792 271.312 68.0625V66.75C271.312 62.4583 270.833 58.7292 269.875 55.5625C268.917 52.3542 267.438 49.8542 265.438 48.0625C263.479 46.2292 260.958 45.3125 257.875 45.3125C255.375 45.3125 253.167 45.875 251.25 47C249.375 48.125 247.875 49.7292 246.75 51.8125V81.4375C247.875 83.3542 249.375 84.8125 251.25 85.8125C253.167 86.8125 255.417 87.3125 258 87.3125ZM295.438 100V89.0625L304.25 87.1875V15.375L294.5 13.5V2.5H322.438V41C324.562 37.875 327.188 35.4583 330.312 33.75C333.479 32 337.062 31.125 341.062 31.125C347.854 31.125 353.229 33.3958 357.188 37.9375C361.188 42.4375 363.188 49.4167 363.188 58.875V87.1875L371.938 89.0625V100H337.062V89.0625L344.938 87.1875V58.75C344.938 53.875 344.021 50.4167 342.188 48.375C340.354 46.3333 337.667 45.3125 334.125 45.3125C331.667 45.3125 329.417 45.8333 327.375 46.875C325.375 47.875 323.729 49.3542 322.438 51.3125V87.1875L330.312 89.0625V100H295.438ZM409.438 101.312C402.979 101.312 397.333 99.8958 392.5 97.0625C387.667 94.1875 383.917 90.25 381.25 85.25C378.625 80.25 377.312 74.5417 377.312 68.125V65.625C377.312 58.9167 378.562 52.9792 381.062 47.8125C383.562 42.6042 387.083 38.5208 391.625 35.5625C396.208 32.6042 401.604 31.125 407.812 31.125C413.938 31.125 419.083 32.3333 423.25 34.75C427.417 37.1667 430.583 40.6458 432.75 45.1875C434.917 49.7292 436 55.2292 436 61.6875V71.625H396.25L396.125 72C396.375 74.9583 397.104 77.6042 398.312 79.9375C399.562 82.2292 401.312 84.0417 403.562 85.375C405.812 86.6667 408.542 87.3125 411.75 87.3125C415.083 87.3125 418.188 86.8958 421.062 86.0625C423.979 85.1875 426.812 83.9167 429.562 82.25L434.5 93.5C431.708 95.75 428.188 97.625 423.938 99.125C419.729 100.583 414.896 101.312 409.438 101.312ZM396.375 59.5625H418.938V57.9375C418.938 55.1875 418.562 52.8333 417.812 50.875C417.104 48.875 415.938 47.3333 414.312 46.25C412.729 45.1667 410.667 44.625 408.125 44.625C405.708 44.625 403.667 45.2708 402 46.5625C400.333 47.8125 399.021 49.5417 398.062 51.75C397.146 53.9583 396.521 56.4583 396.188 59.25L396.375 59.5625ZM445.812 100V89.0625L454.562 87.1875V45.25L444.875 43.375V32.375H471.562L472.25 40.75L472.375 42.25C474.042 38.5833 476.104 35.8125 478.562 33.9375C481.021 32.0625 483.958 31.125 487.375 31.125C488.458 31.125 489.646 31.2292 490.938 31.4375C492.229 31.6042 493.375 31.8333 494.375 32.125L492.438 48.9375L483.375 48.4375C480.792 48.3125 478.688 48.75 477.062 49.75C475.479 50.75 474.062 52.1875 472.812 54.0625V87.1875L481.562 89.0625V100H445.812Z" fill="url(#paint0_linear_1_2)"/>
<path d="M12.125 80.0625L10.3406 80.9658L10.3451 80.9747L12.125 80.0625ZM26.4375 13.5625L27.5016 15.2559L27.5046 15.254L26.4375 13.5625ZM81.875 18.4375H83.875V17.5078L83.1642 16.9085L81.875 18.4375ZM81.875 38.625V40.625H83.875V38.625H81.875ZM68.375 38.625L66.4178 39.0365L66.7518 40.625H68.375V38.625ZM65.8125 26.4375L67.7697 26.026L67.6318 25.3703L67.1268 24.93L65.8125 26.4375ZM59.25 23.0625L58.6436 24.9684L58.6568 24.9725L58.67 24.9765L59.25 23.0625ZM36.625 25.8125L37.8013 27.43L37.8046 27.4276L36.625 25.8125ZM28.1875 37L30.0365 37.7623L30.0389 37.7566L28.1875 37ZM28.125 73L26.2798 73.7716L26.2841 73.7818L26.2885 73.7919L28.125 73ZM59.3125 86.4375L59.7399 88.3913L59.7511 88.3889L59.7622 88.3863L59.3125 86.4375ZM66 84.1875L66.8944 85.9764L68 85.4236V84.1875H66ZM66 68.75H68V66.8979L66.1534 66.7559L66 68.75ZM53 67.75H51V69.6021L52.8466 69.7441L53 67.75ZM53 54.9375V52.9375H51V54.9375H53ZM84.3125 54.9375H86.3125V52.9375H84.3125V54.9375ZM84.3125 91.75L85.4718 93.3797L86.3125 92.7817V91.75H84.3125ZM69.6875 98.6875L69.1013 96.7753L69.0974 96.7766L69.6875 98.6875ZM49.9375 101.312V99.3125C41.1733 99.3125 33.8325 97.4966 27.8265 93.9636L26.8125 95.6875L25.7985 97.4114C32.5425 101.378 40.6183 103.312 49.9375 103.312V101.312ZM26.8125 95.6875L27.8265 93.9636C21.7831 90.4087 17.1508 85.4838 13.9049 79.1503L12.125 80.0625L10.3451 80.9747C13.9325 87.9745 19.0919 93.4663 25.7985 97.4114L26.8125 95.6875ZM12.125 80.0625L13.9094 79.1592C10.6991 72.818 9.0625 65.408 9.0625 56.875H7.0625H5.0625C5.0625 65.9253 6.80087 73.9737 10.3406 80.9658L12.125 80.0625ZM7.0625 56.875H9.0625V53.75H7.0625H5.0625V56.875H7.0625ZM7.0625 53.75H9.0625C9.0625 44.9162 10.7027 37.2255 13.9224 30.6271L12.125 29.75L10.3276 28.8729C6.79731 36.1078 5.0625 44.4171 5.0625 53.75H7.0625ZM12.125 29.75L13.9224 30.6271C17.1436 24.0257 21.6689 18.921 27.5016 15.2559L26.4375 13.5625L25.3734 11.8691C18.8727 15.954 13.8564 21.641 10.3276 28.8729L12.125 29.75ZM26.4375 13.5625L27.5046 15.254C33.3472 11.5681 40.2981 9.6875 48.4375 9.6875V7.6875V5.6875C39.6602 5.6875 31.9445 7.72357 25.3704 11.871L26.4375 13.5625ZM48.4375 7.6875V9.6875C54.7947 9.6875 60.7385 10.5577 66.28 12.2845L66.875 10.375L67.47 8.46555C61.5115 6.60892 55.1636 5.6875 48.4375 5.6875V7.6875ZM66.875 10.375L66.28 12.2845C71.797 14.0035 76.556 16.5689 80.5858 19.9665L81.875 18.4375L83.1642 16.9085C78.694 13.1394 73.453 10.3298 67.47 8.46555L66.875 10.375ZM81.875 18.4375H79.875V38.625H81.875H83.875V18.4375H81.875ZM81.875 38.625V36.625H68.375V38.625V40.625H81.875V38.625ZM68.375 38.625L70.3322 38.2135L67.7697 26.026L65.8125 26.4375L63.8553 26.849L66.4178 39.0365L68.375 38.625ZM65.8125 26.4375L67.1268 24.93C65.2301 23.2764 62.7652 22.0379 59.83 21.1485L59.25 23.0625L58.67 24.9765C61.2348 25.7538 63.1449 26.7652 64.4982 27.945L65.8125 26.4375ZM59.25 23.0625L59.8564 21.1566C56.8717 20.207 53.515 19.75 49.8125 19.75V21.75V23.75C53.1933 23.75 56.1283 24.168 58.6436 24.9684L59.25 23.0625ZM49.8125 21.75V19.75C44.3528 19.75 39.5328 21.2122 35.4454 24.1974L36.625 25.8125L37.8046 27.4276C41.1339 24.9961 45.1056 23.75 49.8125 23.75V21.75ZM36.625 25.8125L35.4487 24.195C31.4406 27.11 28.4147 31.1575 26.3361 36.2434L28.1875 37L30.0389 37.7566C31.8769 33.2592 34.4761 29.8483 37.8013 27.43L36.625 25.8125ZM28.1875 37L26.3385 36.2377C24.2602 41.2786 23.25 47.0892 23.25 53.625H25.25H27.25C27.25 47.4942 28.1981 42.2214 30.0365 37.7623L28.1875 37ZM25.25 53.625H23.25V56.875H25.25H27.25V53.625H25.25ZM25.25 56.875H23.25C23.25 63.2447 24.2395 68.8926 26.2798 73.7716L28.125 73L29.9702 72.2284C28.1771 67.9407 27.25 62.8387 27.25 56.875H25.25ZM28.125 73L26.2885 73.7919C28.3843 78.6525 31.4755 82.4915 35.5781 85.2266L36.6875 83.5625L37.7969 81.8984C34.3995 79.6335 31.7823 76.4308 29.9615 72.2081L28.125 73ZM36.6875 83.5625L35.5781 85.2266C39.7204 87.9881 44.7312 89.3125 50.5 89.3125V87.3125V85.3125C45.3522 85.3125 41.1546 84.1369 37.7969 81.8984L36.6875 83.5625ZM50.5 87.3125V89.3125C53.8277 89.3125 56.9109 89.0101 59.7399 88.3913L59.3125 86.4375L58.8851 84.4837C56.3807 85.0315 53.5889 85.3125 50.5 85.3125V87.3125ZM59.3125 86.4375L59.7622 88.3863C62.5658 87.7393 64.9577 86.9447 66.8944 85.9764L66 84.1875L65.1056 82.3986C63.5423 83.1803 61.4759 83.8857 58.8628 84.4887L59.3125 86.4375ZM66 84.1875H68V68.75H66H64V84.1875H66ZM66 68.75L66.1534 66.7559L53.1534 65.7559L53 67.75L52.8466 69.7441L65.8466 70.7441L66 68.75ZM53 67.75H55V54.9375H53H51V67.75H53ZM53 54.9375V56.9375H84.3125V54.9375V52.9375H53V54.9375ZM84.3125 54.9375H82.3125V91.75H84.3125H86.3125V54.9375H84.3125ZM84.3125 91.75L83.1532 90.1203C79.3176 92.8487 74.6451 95.0758 69.1013 96.7753L69.6875 98.6875L70.2737 100.6C76.1466 98.7992 81.2241 96.4013 85.4718 93.3797L84.3125 91.75ZM69.6875 98.6875L69.0974 96.7766C63.6646 98.4543 57.2878 99.3125 49.9375 99.3125V101.312V103.312C57.5872 103.312 64.3771 102.421 70.2776 100.598L69.6875 98.6875ZM95.3125 100H93.3125V102H95.3125V100ZM95.3125 89.0625L94.8934 87.1069L93.3125 87.4457V89.0625H95.3125ZM104.062 87.1875L104.482 89.1431L106.062 88.8043V87.1875H104.062ZM104.062 45.25H106.062V43.6L104.443 43.2864L104.062 45.25ZM94.375 43.375H92.375V45.025L93.995 45.3386L94.375 43.375ZM94.375 32.375V30.375H92.375V32.375H94.375ZM121.062 32.375L123.056 32.2114L122.905 30.375H121.062V32.375ZM121.75 40.75L119.757 40.9136L119.757 40.9161L121.75 40.75ZM121.875 42.25L119.882 42.4161L120.519 50.0656L123.696 43.0776L121.875 42.25ZM140.438 31.4375L140.119 33.412L140.15 33.417L140.182 33.4211L140.438 31.4375ZM143.875 32.125L145.862 32.354L146.055 30.6775L144.435 30.205L143.875 32.125ZM141.938 48.9375L141.827 50.9345L143.709 51.0383L143.924 49.1665L141.938 48.9375ZM132.875 48.4375L132.985 46.4405L132.972 46.4398L132.875 48.4375ZM126.562 49.75L125.514 48.0467L125.504 48.0528L125.495 48.059L126.562 49.75ZM122.312 54.0625L120.648 52.9531L120.312 53.4569V54.0625H122.312ZM122.312 87.1875H120.312V88.8043L121.893 89.1431L122.312 87.1875ZM131.062 89.0625H133.062V87.4457L131.482 87.1069L131.062 89.0625ZM131.062 100V102H133.062V100H131.062ZM95.3125 100H97.3125V89.0625H95.3125H93.3125V100H95.3125ZM95.3125 89.0625L95.7316 91.0181L104.482 89.1431L104.062 87.1875L103.643 85.2319L94.8934 87.1069L95.3125 89.0625ZM104.062 87.1875H106.062V45.25H104.062H102.062V87.1875H104.062ZM104.062 45.25L104.443 43.2864L94.755 41.4114L94.375 43.375L93.995 45.3386L103.682 47.2136L104.062 45.25ZM94.375 43.375H96.375V32.375H94.375H92.375V43.375H94.375ZM94.375 32.375V34.375H121.062V32.375V30.375H94.375V32.375ZM121.062 32.375L119.069 32.5386L119.757 40.9136L121.75 40.75L123.743 40.5864L123.056 32.2114L121.062 32.375ZM121.75 40.75L119.757 40.9161L119.882 42.4161L121.875 42.25L123.868 42.0839L123.743 40.5839L121.75 40.75ZM121.875 42.25L123.696 43.0776C125.266 39.6233 127.147 37.1511 129.275 35.5277L128.062 33.9375L126.85 32.3473C124.061 34.4739 121.817 37.5434 120.054 41.4224L121.875 42.25ZM128.062 33.9375L129.275 35.5277C131.348 33.9466 133.848 33.125 136.875 33.125V31.125V29.125C133.069 29.125 129.693 30.1784 126.85 32.3473L128.062 33.9375ZM136.875 31.125V33.125C137.832 33.125 138.912 33.2173 140.119 33.412L140.438 31.4375L140.756 29.463C139.38 29.2411 138.084 29.125 136.875 29.125V31.125ZM140.438 31.4375L140.182 33.4211C141.395 33.5776 142.436 33.7885 143.315 34.045L143.875 32.125L144.435 30.205C143.314 29.8782 142.064 29.6308 140.693 29.4539L140.438 31.4375ZM143.875 32.125L141.888 31.896L139.951 48.7085L141.938 48.9375L143.924 49.1665L145.862 32.354L143.875 32.125ZM141.938 48.9375L142.048 46.9405L132.985 46.4405L132.875 48.4375L132.765 50.4345L141.827 50.9345L141.938 48.9375ZM132.875 48.4375L132.972 46.4398C130.126 46.3021 127.585 46.7724 125.514 48.0467L126.562 49.75L127.611 51.4533C128.79 50.7276 130.458 50.3229 132.778 50.4352L132.875 48.4375ZM126.562 49.75L125.495 48.059C123.631 49.2362 122.023 50.8912 120.648 52.9531L122.312 54.0625L123.977 55.1719C125.102 53.4838 126.328 52.2638 127.63 51.441L126.562 49.75ZM122.312 54.0625H120.312V87.1875H122.312H124.312V54.0625H122.312ZM122.312 87.1875L121.893 89.1431L130.643 91.0181L131.062 89.0625L131.482 87.1069L122.732 85.2319L122.312 87.1875ZM131.062 89.0625H129.062V100H131.062H133.062V89.0625H131.062ZM131.062 100V98H95.3125V100V102H131.062V100ZM154.688 95.9375L153.337 97.4125L153.345 97.4202L154.688 95.9375ZM156.5 65.6875L157.716 67.2751L157.724 67.2689L156.5 65.6875ZM188.125 59.6875V61.6875H190.125V59.6875H188.125ZM185.25 46.8125L183.777 48.1653L183.791 48.181L183.806 48.1963L185.25 46.8125ZM171.5 44.5L172.07 46.4171L172.094 46.41L172.117 46.4024L171.5 44.5ZM167.25 46.5L166.128 44.8442L165.413 45.329L165.275 46.1824L167.25 46.5ZM165.812 55.4375V57.4375H167.517L167.787 55.7551L165.812 55.4375ZM152.688 55.4375L150.688 55.466L150.716 57.4375H152.688V55.4375ZM152.438 37.875L151.454 36.1335L150.421 36.717L150.438 37.9035L152.438 37.875ZM198.688 37.3125L197.433 38.8705L197.441 38.8767L198.688 37.3125ZM206.375 85.5H204.375V85.5476L204.377 85.5951L206.375 85.5ZM206.625 88.0625L204.647 88.3592L204.868 89.8337L206.345 90.0427L206.625 88.0625ZM213.688 89.0625H215.688V87.3257L213.968 87.0823L213.688 89.0625ZM213.688 100V102H215.688V100H213.688ZM191.062 100L189.201 100.731L189.699 102H191.062V100ZM188.688 92.25L190.664 91.9412L189.955 87.4091L187.117 91.0123L188.688 92.25ZM181 98.875L181.973 100.622L181.982 100.617L181 98.875ZM182.812 86.125L183.694 87.9203L183.707 87.9139L183.72 87.9073L182.812 86.125ZM188.125 81.5625L189.789 82.6719L190.125 82.1681V81.5625H188.125ZM188.125 70.875H190.125V68.875H188.125V70.875ZM170 73.625L168.679 72.1236L168.671 72.1302L168.664 72.1369L170 73.625ZM169.188 85.875L167.859 87.3698L167.881 87.3893L167.903 87.408L169.188 85.875ZM170.688 101.312V99.3125C164.343 99.3125 159.533 97.6261 156.03 94.4548L154.688 95.9375L153.345 97.4202C157.759 101.416 163.615 103.312 170.688 103.312V101.312ZM154.688 95.9375L156.038 94.4625C152.56 91.277 150.75 86.9314 150.75 81.1875H148.75H146.75C146.75 87.8603 148.899 93.348 153.337 97.4125L154.688 95.9375ZM148.75 81.1875H150.75C150.75 75.45 153.032 70.8643 157.716 67.2751L156.5 65.6875L155.284 64.0999C149.635 68.4274 146.75 74.175 146.75 81.1875H148.75ZM156.5 65.6875L157.724 67.2689C162.399 63.6498 169.452 61.6875 179.188 61.6875V59.6875V57.6875C169.006 57.6875 160.934 59.7252 155.276 64.1061L156.5 65.6875ZM179.188 59.6875V61.6875H188.125V59.6875V57.6875H179.188V59.6875ZM188.125 59.6875H190.125V54.6875H188.125H186.125V59.6875H188.125ZM188.125 54.6875H190.125C190.125 51.0175 189.029 47.8648 186.694 45.4287L185.25 46.8125L183.806 48.1963C185.305 49.7602 186.125 51.8575 186.125 54.6875H188.125ZM185.25 46.8125L186.723 45.4597C184.346 42.8708 180.888 41.75 176.75 41.75V43.75V45.75C180.195 45.75 182.404 46.6708 183.777 48.1653L185.25 46.8125ZM176.75 43.75V41.75C174.624 41.75 172.66 42.0211 170.883 42.5976L171.5 44.5L172.117 46.4024C173.423 45.9789 174.959 45.75 176.75 45.75V43.75ZM171.5 44.5L170.93 42.5829C169.198 43.0978 167.595 43.8508 166.128 44.8442L167.25 46.5L168.372 48.1558C169.489 47.3992 170.718 46.8189 172.07 46.4171L171.5 44.5ZM167.25 46.5L165.275 46.1824L163.838 55.1199L165.812 55.4375L167.787 55.7551L169.225 46.8176L167.25 46.5ZM165.812 55.4375V53.4375H152.688V55.4375V57.4375H165.812V55.4375ZM152.688 55.4375L154.687 55.409L154.437 37.8465L152.438 37.875L150.438 37.9035L150.688 55.466L152.688 55.4375ZM152.438 37.875L153.421 39.6165C156.828 37.6928 160.525 36.124 164.518 34.914L163.938 33L163.357 31.086C159.1 32.376 155.131 34.0572 151.454 36.1335L152.438 37.875ZM163.938 33L164.518 34.914C168.424 33.7302 172.829 33.125 177.75 33.125V31.125V29.125C172.504 29.125 167.701 29.7698 163.357 31.086L163.938 33ZM177.75 31.125V33.125C186.283 33.125 192.769 35.1162 197.433 38.8705L198.688 37.3125L199.942 35.7545C194.356 31.2588 186.883 29.125 177.75 29.125V31.125ZM198.688 37.3125L197.441 38.8767C202.009 42.5159 204.375 47.7471 204.375 54.875H206.375H208.375C208.375 46.7529 205.616 40.2757 199.934 35.7483L198.688 37.3125ZM206.375 54.875H204.375V82.75H206.375H208.375V54.875H206.375ZM206.375 82.75H204.375C204.375 82.7518 204.375 82.7536 204.375 82.7554C204.375 82.7572 204.375 82.759 204.375 82.7607C204.375 82.7625 204.375 82.7643 204.375 82.7661C204.375 82.7679 204.375 82.7697 204.375 82.7715C204.375 82.7733 204.375 82.7751 204.375 82.7769C204.375 82.7786 204.375 82.7804 204.375 82.7822C204.375 82.784 204.375 82.7858 204.375 82.7876C204.375 82.7894 204.375 82.7912 204.375 82.793C204.375 82.7948 204.375 82.7965 204.375 82.7983C204.375 82.8001 204.375 82.8019 204.375 82.8037C204.375 82.8055 204.375 82.8073 204.375 82.8091C204.375 82.8109 204.375 82.8127 204.375 82.8145C204.375 82.8162 204.375 82.818 204.375 82.8198C204.375 82.8216 204.375 82.8234 204.375 82.8252C204.375 82.827 204.375 82.8288 204.375 82.8306C204.375 82.8324 204.375 82.8341 204.375 82.8359C204.375 82.8377 204.375 82.8395 204.375 82.8413C204.375 82.8431 204.375 82.8449 204.375 82.8467C204.375 82.8485 204.375 82.8503 204.375 82.8521C204.375 82.8538 204.375 82.8556 204.375 82.8574C204.375 82.8592 204.375 82.861 204.375 82.8628C204.375 82.8646 204.375 82.8664 204.375 82.8682C204.375 82.87 204.375 82.8717 204.375 82.8735C204.375 82.8753 204.375 82.8771 204.375 82.8789C204.375 82.8807 204.375 82.8825 204.375 82.8843C204.375 82.8861 204.375 82.8879 204.375 82.8896C204.375 82.8914 204.375 82.8932 204.375 82.895C204.375 82.8968 204.375 82.8986 204.375 82.9004C204.375 82.9022 204.375 82.904 204.375 82.9058C204.375 82.9076 204.375 82.9093 204.375 82.9111C204.375 82.9129 204.375 82.9147 204.375 82.9165C204.375 82.9183 204.375 82.9201 204.375 82.9219C204.375 82.9237 204.375 82.9255 204.375 82.9272C204.375 82.929 204.375 82.9308 204.375 82.9326C204.375 82.9344 204.375 82.9362 204.375 82.938C204.375 82.9398 204.375 82.9416 204.375 82.9434C204.375 82.9451 204.375 82.9469 204.375 82.9487C204.375 82.9505 204.375 82.9523 204.375 82.9541C204.375 82.9559 204.375 82.9577 204.375 82.9595C204.375 82.9613 204.375 82.9631 204.375 82.9648C204.375 82.9666 204.375 82.9684 204.375 82.9702C204.375 82.972 204.375 82.9738 204.375 82.9756C204.375 82.9774 204.375 82.9792 204.375 82.981C204.375 82.9827 204.375 82.9845 204.375 82.9863C204.375 82.9881 204.375 82.9899 204.375 82.9917C204.375 82.9935 204.375 82.9953 204.375 82.9971C204.375 82.9989 204.375 83.0007 204.375 83.0024C204.375 83.0042 204.375 83.006 204.375 83.0078C204.375 83.0096 204.375 83.0114 204.375 83.0132C204.375 83.015 204.375 83.0168 204.375 83.0186C204.375 83.0203 204.375 83.0221 204.375 83.0239C204.375 83.0257 204.375 83.0275 204.375 83.0293C204.375 83.0311 204.375 83.0329 204.375 83.0347C204.375 83.0365 204.375 83.0382 204.375 83.04C204.375 83.0418 204.375 83.0436 204.375 83.0454C204.375 83.0472 204.375 83.049 204.375 83.0508C204.375 83.0526 204.375 83.0544 204.375 83.0562C204.375 83.0579 204.375 83.0597 204.375 83.0615C204.375 83.0633 204.375 83.0651 204.375 83.0669C204.375 83.0687 204.375 83.0705 204.375 83.0723C204.375 83.0741 204.375 83.0758 204.375 83.0776C204.375 83.0794 204.375 83.0812 204.375 83.083C204.375 83.0848 204.375 83.0866 204.375 83.0884C204.375 83.0902 204.375 83.092 204.375 83.0938C204.375 83.0955 204.375 83.0973 204.375 83.0991C204.375 83.1009 204.375 83.1027 204.375 83.1045C204.375 83.1063 204.375 83.1081 204.375 83.1099C204.375 83.1117 204.375 83.1134 204.375 83.1152C204.375 83.117 204.375 83.1188 204.375 83.1206C204.375 83.1224 204.375 83.1242 204.375 83.126C204.375 83.1278 204.375 83.1296 204.375 83.1313C204.375 83.1331 204.375 83.1349 204.375 83.1367C204.375 83.1385 204.375 83.1403 204.375 83.1421C204.375 83.1439 204.375 83.1457 204.375 83.1475C204.375 83.1493 204.375 83.151 204.375 83.1528C204.375 83.1546 204.375 83.1564 204.375 83.1582C204.375 83.16 204.375 83.1618 204.375 83.1636C204.375 83.1654 204.375 83.1672 204.375 83.1689C204.375 83.1707 204.375 83.1725 204.375 83.1743C204.375 83.1761 204.375 83.1779 204.375 83.1797C204.375 83.1815 204.375 83.1833 204.375 83.1851C204.375 83.1868 204.375 83.1886 204.375 83.1904C204.375 83.1922 204.375 83.194 204.375 83.1958C204.375 83.1976 204.375 83.1994 204.375 83.2012C204.375 83.203 204.375 83.2048 204.375 83.2065C204.375 83.2083 204.375 83.2101 204.375 83.2119C204.375 83.2137 204.375 83.2155 204.375 83.2173C204.375 83.2191 204.375 83.2209 204.375 83.2227C204.375 83.2244 204.375 83.2262 204.375 83.228C204.375 83.2298 204.375 83.2316 204.375 83.2334C204.375 83.2352 204.375 83.237 204.375 83.2388C204.375 83.2406 204.375 83.2424 204.375 83.2441C204.375 83.2459 204.375 83.2477 204.375 83.2495C204.375 83.2513 204.375 83.2531 204.375 83.2549C204.375 83.2567 204.375 83.2585 204.375 83.2603C204.375 83.262 204.375 83.2638 204.375 83.2656C204.375 83.2674 204.375 83.2692 204.375 83.271C204.375 83.2728 204.375 83.2746 204.375 83.2764C204.375 83.2782 204.375 83.2799 204.375 83.2817C204.375 83.2835 204.375 83.2853 204.375 83.2871C204.375 83.2889 204.375 83.2907 204.375 83.2925C204.375 83.2943 204.375 83.2961 204.375 83.2979C204.375 83.2996 204.375 83.3014 204.375 83.3032C204.375 83.305 204.375 83.3068 204.375 83.3086C204.375 83.3104 204.375 83.3122 204.375 83.314C204.375 83.3158 204.375 83.3175 204.375 83.3193C204.375 83.3211 204.375 83.3229 204.375 83.3247C204.375 83.3265 204.375 83.3283 204.375 83.3301C204.375 83.3319 204.375 83.3337 204.375 83.3354C204.375 83.3372 204.375 83.339 204.375 83.3408C204.375 83.3426 204.375 83.3444 204.375 83.3462C204.375 83.348 204.375 83.3498 204.375 83.3516C204.375 83.3534 204.375 83.3551 204.375 83.3569C204.375 83.3587 204.375 83.3605 204.375 83.3623C204.375 83.3641 204.375 83.3659 204.375 83.3677C204.375 83.3695 204.375 83.3713 204.375 83.373C204.375 83.3748 204.375 83.3766 204.375 83.3784C204.375 83.3802 204.375 83.382 204.375 83.3838C204.375 83.3856 204.375 83.3874 204.375 83.3892C204.375 83.391 204.375 83.3927 204.375 83.3945C204.375 83.3963 204.375 83.3981 204.375 83.3999C204.375 83.4017 204.375 83.4035 204.375 83.4053C204.375 83.4071 204.375 83.4089 204.375 83.4106C204.375 83.4124 204.375 83.4142 204.375 83.416C204.375 83.4178 204.375 83.4196 204.375 83.4214C204.375 83.4232 204.375 83.425 204.375 83.4268C204.375 83.4285 204.375 83.4303 204.375 83.4321C204.375 83.4339 204.375 83.4357 204.375 83.4375C204.375 83.4393 204.375 83.4411 204.375 83.4429C204.375 83.4447 204.375 83.4465 204.375 83.4482C204.375 83.45 204.375 83.4518 204.375 83.4536C204.375 83.4554 204.375 83.4572 204.375 83.459C204.375 83.4608 204.375 83.4626 204.375 83.4644C204.375 83.4661 204.375 83.4679 204.375 83.4697C204.375 83.4715 204.375 83.4733 204.375 83.4751C204.375 83.4769 204.375 83.4787 204.375 83.4805C204.375 83.4823 204.375 83.484 204.375 83.4858C204.375 83.4876 204.375 83.4894 204.375 83.4912C204.375 83.493 204.375 83.4948 204.375 83.4966C204.375 83.4984 204.375 83.5002 204.375 83.502C204.375 83.5037 204.375 83.5055 204.375 83.5073C204.375 83.5091 204.375 83.5109 204.375 83.5127C204.375 83.5145 204.375 83.5163 204.375 83.5181C204.375 83.5199 204.375 83.5216 204.375 83.5234C204.375 83.5252 204.375 83.527 204.375 83.5288C204.375 83.5306 204.375 83.5324 204.375 83.5342C204.375 83.536 204.375 83.5378 204.375 83.5396C204.375 83.5413 204.375 83.5431 204.375 83.5449C204.375 83.5467 204.375 83.5485 204.375 83.5503C204.375 83.5521 204.375 83.5539 204.375 83.5557C204.375 83.5575 204.375 83.5592 204.375 83.561C204.375 83.5628 204.375 83.5646 204.375 83.5664C204.375 83.5682 204.375 83.57 204.375 83.5718C204.375 83.5736 204.375 83.5754 204.375 83.5771C204.375 83.5789 204.375 83.5807 204.375 83.5825C204.375 83.5843 204.375 83.5861 204.375 83.5879C204.375 83.5897 204.375 83.5915 204.375 83.5933C204.375 83.5951 204.375 83.5968 204.375 83.5986C204.375 83.6004 204.375 83.6022 204.375 83.604C204.375 83.6058 204.375 83.6076 204.375 83.6094C204.375 83.6112 204.375 83.613 204.375 83.6147C204.375 83.6165 204.375 83.6183 204.375 83.6201C204.375 83.6219 204.375 83.6237 204.375 83.6255C204.375 83.6273 204.375 83.6291 204.375 83.6309C204.375 83.6326 204.375 83.6344 204.375 83.6362C204.375 83.638 204.375 83.6398 204.375 83.6416C204.375 83.6434 204.375 83.6452 204.375 83.647C204.375 83.6488 204.375 83.6506 204.375 83.6523C204.375 83.6541 204.375 83.6559 204.375 83.6577C204.375 83.6595 204.375 83.6613 204.375 83.6631C204.375 83.6649 204.375 83.6667 204.375 83.6685C204.375 83.6702 204.375 83.672 204.375 83.6738C204.375 83.6756 204.375 83.6774 204.375 83.6792C204.375 83.681 204.375 83.6828 204.375 83.6846C204.375 83.6864 204.375 83.6882 204.375 83.6899C204.375 83.6917 204.375 83.6935 204.375 83.6953C204.375 83.6971 204.375 83.6989 204.375 83.7007C204.375 83.7025 204.375 83.7043 204.375 83.7061C204.375 83.7078 204.375 83.7096 204.375 83.7114C204.375 83.7132 204.375 83.715 204.375 83.7168C204.375 83.7186 204.375 83.7204 204.375 83.7222C204.375 83.724 204.375 83.7257 204.375 83.7275C204.375 83.7293 204.375 83.7311 204.375 83.7329C204.375 83.7347 204.375 83.7365 204.375 83.7383C204.375 83.7401 204.375 83.7419 204.375 83.7437C204.375 83.7454 204.375 83.7472 204.375 83.749C204.375 83.7508 204.375 83.7526 204.375 83.7544C204.375 83.7562 204.375 83.758 204.375 83.7598C204.375 83.7616 204.375 83.7633 204.375 83.7651C204.375 83.7669 204.375 83.7687 204.375 83.7705C204.375 83.7723 204.375 83.7741 204.375 83.7759C204.375 83.7777 204.375 83.7795 204.375 83.7812C204.375 83.783 204.375 83.7848 204.375 83.7866C204.375 83.7884 204.375 83.7902 204.375 83.792C204.375 83.7938 204.375 83.7956 204.375 83.7974C204.375 83.7992 204.375 83.8009 204.375 83.8027C204.375 83.8045 204.375 83.8063 204.375 83.8081C204.375 83.8099 204.375 83.8117 204.375 83.8135C204.375 83.8153 204.375 83.8171 204.375 83.8188C204.375 83.8206 204.375 83.8224 204.375 83.8242C204.375 83.826 204.375 83.8278 204.375 83.8296C204.375 83.8314 204.375 83.8332 204.375 83.835C204.375 83.8368 204.375 83.8385 204.375 83.8403C204.375 83.8421 204.375 83.8439 204.375 83.8457C204.375 83.8475 204.375 83.8493 204.375 83.8511C204.375 83.8529 204.375 83.8547 204.375 83.8564C204.375 83.8582 204.375 83.86 204.375 83.8618C204.375 83.8636 204.375 83.8654 204.375 83.8672C204.375 83.869 204.375 83.8708 204.375 83.8726C204.375 83.8743 204.375 83.8761 204.375 83.8779C204.375 83.8797 204.375 83.8815 204.375 83.8833C204.375 83.8851 204.375 83.8869 204.375 83.8887C204.375 83.8905 204.375 83.8923 204.375 83.894C204.375 83.8958 204.375 83.8976 204.375 83.8994C204.375 83.9012 204.375 83.903 204.375 83.9048C204.375 83.9066 204.375 83.9084 204.375 83.9102C204.375 83.9119 204.375 83.9137 204.375 83.9155C204.375 83.9173 204.375 83.9191 204.375 83.9209C204.375 83.9227 204.375 83.9245 204.375 83.9263C204.375 83.9281 204.375 83.9299 204.375 83.9316C204.375 83.9334 204.375 83.9352 204.375 83.937C204.375 83.9388 204.375 83.9406 204.375 83.9424C204.375 83.9442 204.375 83.946 204.375 83.9478C204.375 83.9495 204.375 83.9513 204.375 83.9531C204.375 83.9549 204.375 83.9567 204.375 83.9585C204.375 83.9603 204.375 83.9621 204.375 83.9639C204.375 83.9657 204.375 83.9674 204.375 83.9692C204.375 83.971 204.375 83.9728 204.375 83.9746C204.375 83.9764 204.375 83.9782 204.375 83.98C204.375 83.9818 204.375 83.9836 204.375 83.9854C204.375 83.9871 204.375 83.9889 204.375 83.9907C204.375 83.9925 204.375 83.9943 204.375 83.9961C204.375 83.9979 204.375 83.9997 204.375 84.0015C204.375 84.0033 204.375 84.005 204.375 84.0068C204.375 84.0086 204.375 84.0104 204.375 84.0122C204.375 84.014 204.375 84.0158 204.375 84.0176C204.375 84.0194 204.375 84.0212 204.375 84.0229C204.375 84.0247 204.375 84.0265 204.375 84.0283C204.375 84.0301 204.375 84.0319 204.375 84.0337C204.375 84.0355 204.375 84.0373 204.375 84.0391C204.375 84.0409 204.375 84.0426 204.375 84.0444C204.375 84.0462 204.375 84.048 204.375 84.0498C204.375 84.0516 204.375 84.0534 204.375 84.0552C204.375 84.057 204.375 84.0588 204.375 84.0605C204.375 84.0623 204.375 84.0641 204.375 84.0659C204.375 84.0677 204.375 84.0695 204.375 84.0713C204.375 84.0731 204.375 84.0749 204.375 84.0767C204.375 84.0785 204.375 84.0802 204.375 84.082C204.375 84.0838 204.375 84.0856 204.375 84.0874C204.375 84.0892 204.375 84.091 204.375 84.0928C204.375 84.0946 204.375 84.0964 204.375 84.0981C204.375 84.0999 204.375 84.1017 204.375 84.1035C204.375 84.1053 204.375 84.1071 204.375 84.1089C204.375 84.1107 204.375 84.1125 204.375 84.1143C204.375 84.116 204.375 84.1178 204.375 84.1196C204.375 84.1214 204.375 84.1232 204.375 84.125C204.375 84.1268 204.375 84.1286 204.375 84.1304C204.375 84.1322 204.375 84.134 204.375 84.1357C204.375 84.1375 204.375 84.1393 204.375 84.1411C204.375 84.1429 204.375 84.1447 204.375 84.1465C204.375 84.1483 204.375 84.1501 204.375 84.1519C204.375 84.1536 204.375 84.1554 204.375 84.1572C204.375 84.159 204.375 84.1608 204.375 84.1626C204.375 84.1644 204.375 84.1662 204.375 84.168C204.375 84.1698 204.375 84.1715 204.375 84.1733C204.375 84.1751 204.375 84.1769 204.375 84.1787C204.375 84.1805 204.375 84.1823 204.375 84.1841C204.375 84.1859 204.375 84.1877 204.375 84.1895C204.375 84.1912 204.375 84.193 204.375 84.1948C204.375 84.1966 204.375 84.1984 204.375 84.2002C204.375 84.202 204.375 84.2038 204.375 84.2056C204.375 84.2074 204.375 84.2091 204.375 84.2109C204.375 84.2127 204.375 84.2145 204.375 84.2163C204.375 84.2181 204.375 84.2199 204.375 84.2217C204.375 84.2235 204.375 84.2253 204.375 84.2271C204.375 84.2288 204.375 84.2306 204.375 84.2324C204.375 84.2342 204.375 84.236 204.375 84.2378C204.375 84.2396 204.375 84.2414 204.375 84.2432C204.375 84.245 204.375 84.2467 204.375 84.2485C204.375 84.2503 204.375 84.2521 204.375 84.2539C204.375 84.2557 204.375 84.2575 204.375 84.2593C204.375 84.2611 204.375 84.2629 204.375 84.2646C204.375 84.2664 204.375 84.2682 204.375 84.27C204.375 84.2718 204.375 84.2736 204.375 84.2754C204.375 84.2772 204.375 84.279 204.375 84.2808C204.375 84.2826 204.375 84.2843 204.375 84.2861C204.375 84.2879 204.375 84.2897 204.375 84.2915C204.375 84.2933 204.375 84.2951 204.375 84.2969C204.375 84.2987 204.375 84.3005 204.375 84.3022C204.375 84.304 204.375 84.3058 204.375 84.3076C204.375 84.3094 204.375 84.3112 204.375 84.313C204.375 84.3148 204.375 84.3166 204.375 84.3184C204.375 84.3201 204.375 84.3219 204.375 84.3237C204.375 84.3255 204.375 84.3273 204.375 84.3291C204.375 84.3309 204.375 84.3327 204.375 84.3345C204.375 84.3363 204.375 84.3381 204.375 84.3398C204.375 84.3416 204.375 84.3434 204.375 84.3452C204.375 84.347 204.375 84.3488 204.375 84.3506C204.375 84.3524 204.375 84.3542 204.375 84.356C204.375 84.3577 204.375 84.3595 204.375 84.3613C204.375 84.3631 204.375 84.3649 204.375 84.3667C204.375 84.3685 204.375 84.3703 204.375 84.3721C204.375 84.3739 204.375 84.3757 204.375 84.3774C204.375 84.3792 204.375 84.381 204.375 84.3828C204.375 84.3846 204.375 84.3864 204.375 84.3882C204.375 84.39 204.375 84.3918 204.375 84.3936C204.375 84.3953 204.375 84.3971 204.375 84.3989C204.375 84.4007 204.375 84.4025 204.375 84.4043C204.375 84.4061 204.375 84.4079 204.375 84.4097C204.375 84.4115 204.375 84.4132 204.375 84.415C204.375 84.4168 204.375 84.4186 204.375 84.4204C204.375 84.4222 204.375 84.424 204.375 84.4258C204.375 84.4276 204.375 84.4294 204.375 84.4312C204.375 84.4329 204.375 84.4347 204.375 84.4365C204.375 84.4383 204.375 84.4401 204.375 84.4419C204.375 84.4437 204.375 84.4455 204.375 84.4473C204.375 84.4491 204.375 84.4508 204.375 84.4526C204.375 84.4544 204.375 84.4562 204.375 84.458C204.375 84.4598 204.375 84.4616 204.375 84.4634C204.375 84.4652 204.375 84.467 204.375 84.4688C204.375 84.4705 204.375 84.4723 204.375 84.4741C204.375 84.4759 204.375 84.4777 204.375 84.4795C204.375 84.4813 204.375 84.4831 204.375 84.4849C204.375 84.4867 204.375 84.4884 204.375 84.4902C204.375 84.492 204.375 84.4938 204.375 84.4956C204.375 84.4974 204.375 84.4992 204.375 84.501C204.375 84.5028 204.375 84.5046 204.375 84.5063C204.375 84.5081 204.375 84.5099 204.375 84.5117C204.375 84.5135 204.375 84.5153 204.375 84.5171C204.375 84.5189 204.375 84.5207 204.375 84.5225C204.375 84.5243 204.375 84.526 204.375 84.5278C204.375 84.5296 204.375 84.5314 204.375 84.5332C204.375 84.535 204.375 84.5368 204.375 84.5386C204.375 84.5404 204.375 84.5422 204.375 84.5439C204.375 84.5457 204.375 84.5475 204.375 84.5493C204.375 84.5511 204.375 84.5529 204.375 84.5547C204.375 84.5565 204.375 84.5583 204.375 84.5601C204.375 84.5618 204.375 84.5636 204.375 84.5654C204.375 84.5672 204.375 84.569 204.375 84.5708C204.375 84.5726 204.375 84.5744 204.375 84.5762C204.375 84.578 204.375 84.5798 204.375 84.5815C204.375 84.5833 204.375 84.5851 204.375 84.5869C204.375 84.5887 204.375 84.5905 204.375 84.5923C204.375 84.5941 204.375 84.5959 204.375 84.5977C204.375 84.5994 204.375 84.6012 204.375 84.603C204.375 84.6048 204.375 84.6066 204.375 84.6084C204.375 84.6102 204.375 84.612 204.375 84.6138C204.375 84.6156 204.375 84.6174 204.375 84.6191C204.375 84.6209 204.375 84.6227 204.375 84.6245C204.375 84.6263 204.375 84.6281 204.375 84.6299C204.375 84.6317 204.375 84.6335 204.375 84.6353C204.375 84.637 204.375 84.6388 204.375 84.6406C204.375 84.6424 204.375 84.6442 204.375 84.646C204.375 84.6478 204.375 84.6496 204.375 84.6514C204.375 84.6532 204.375 84.6549 204.375 84.6567C204.375 84.6585 204.375 84.6603 204.375 84.6621C204.375 84.6639 204.375 84.6657 204.375 84.6675C204.375 84.6693 204.375 84.6711 204.375 84.6729C204.375 84.6746 204.375 84.6764 204.375 84.6782C204.375 84.68 204.375 84.6818 204.375 84.6836C204.375 84.6854 204.375 84.6872 204.375 84.689C204.375 84.6908 204.375 84.6925 204.375 84.6943C204.375 84.6961 204.375 84.6979 204.375 84.6997C204.375 84.7015 204.375 84.7033 204.375 84.7051C204.375 84.7069 204.375 84.7087 204.375 84.7104C204.375 84.7122 204.375 84.714 204.375 84.7158C204.375 84.7176 204.375 84.7194 204.375 84.7212C204.375 84.723 204.375 84.7248 204.375 84.7266C204.375 84.7284 204.375 84.7301 204.375 84.7319C204.375 84.7337 204.375 84.7355 204.375 84.7373C204.375 84.7391 204.375 84.7409 204.375 84.7427C204.375 84.7445 204.375 84.7463 204.375 84.748C204.375 84.7498 204.375 84.7516 204.375 84.7534C204.375 84.7552 204.375 84.757 204.375 84.7588C204.375 84.7606 204.375 84.7624 204.375 84.7642C204.375 84.766 204.375 84.7677 204.375 84.7695C204.375 84.7713 204.375 84.7731 204.375 84.7749C204.375 84.7767 204.375 84.7785 204.375 84.7803C204.375 84.7821 204.375 84.7839 204.375 84.7856C204.375 84.7874 204.375 84.7892 204.375 84.791C204.375 84.7928 204.375 84.7946 204.375 84.7964C204.375 84.7982 204.375 84.8 204.375 84.8018C204.375 84.8035 204.375 84.8053 204.375 84.8071C204.375 84.8089 204.375 84.8107 204.375 84.8125C204.375 84.8143 204.375 84.8161 204.375 84.8179C204.375 84.8197 204.375 84.8215 204.375 84.8232C204.375 84.825 204.375 84.8268 204.375 84.8286C204.375 84.8304 204.375 84.8322 204.375 84.834C204.375 84.8358 204.375 84.8376 204.375 84.8394C204.375 84.8411 204.375 84.8429 204.375 84.8447C204.375 84.8465 204.375 84.8483 204.375 84.8501C204.375 84.8519 204.375 84.8537 204.375 84.8555C204.375 84.8573 204.375 84.859 204.375 84.8608C204.375 84.8626 204.375 84.8644 204.375 84.8662C204.375 84.868 204.375 84.8698 204.375 84.8716C204.375 84.8734 204.375 84.8752 204.375 84.877C204.375 84.8787 204.375 84.8805 204.375 84.8823C204.375 84.8841 204.375 84.8859 204.375 84.8877C204.375 84.8895 204.375 84.8913 204.375 84.8931C204.375 84.8949 204.375 84.8966 204.375 84.8984C204.375 84.9002 204.375 84.902 204.375 84.9038C204.375 84.9056 204.375 84.9074 204.375 84.9092C204.375 84.911 204.375 84.9128 204.375 84.9146C204.375 84.9163 204.375 84.9181 204.375 84.9199C204.375 84.9217 204.375 84.9235 204.375 84.9253C204.375 84.9271 204.375 84.9289 204.375 84.9307C204.375 84.9325 204.375 84.9342 204.375 84.936C204.375 84.9378 204.375 84.9396 204.375 84.9414C204.375 84.9432 204.375 84.945 204.375 84.9468C204.375 84.9486 204.375 84.9504 204.375 84.9521C204.375 84.9539 204.375 84.9557 204.375 84.9575C204.375 84.9593 204.375 84.9611 204.375 84.9629C204.375 84.9647 204.375 84.9665 204.375 84.9683C204.375 84.9701 204.375 84.9718 204.375 84.9736C204.375 84.9754 204.375 84.9772 204.375 84.979C204.375 84.9808 204.375 84.9826 204.375 84.9844C204.375 84.9862 204.375 84.988 204.375 84.9897C204.375 84.9915 204.375 84.9933 204.375 84.9951C204.375 84.9969 204.375 84.9987 204.375 85.0005C204.375 85.0023 204.375 85.0041 204.375 85.0059C204.375 85.0076 204.375 85.0094 204.375 85.0112C204.375 85.013 204.375 85.0148 204.375 85.0166C204.375 85.0184 204.375 85.0202 204.375 85.022C204.375 85.0238 204.375 85.0256 204.375 85.0273C204.375 85.0291 204.375 85.0309 204.375 85.0327C204.375 85.0345 204.375 85.0363 204.375 85.0381C204.375 85.0399 204.375 85.0417 204.375 85.0435C204.375 85.0452 204.375 85.047 204.375 85.0488C204.375 85.0506 204.375 85.0524 204.375 85.0542C204.375 85.056 204.375 85.0578 204.375 85.0596C204.375 85.0614 204.375 85.0632 204.375 85.0649C204.375 85.0667 204.375 85.0685 204.375 85.0703C204.375 85.0721 204.375 85.0739 204.375 85.0757C204.375 85.0775 204.375 85.0793 204.375 85.0811C204.375 85.0828 204.375 85.0846 204.375 85.0864C204.375 85.0882 204.375 85.09 204.375 85.0918C204.375 85.0936 204.375 85.0954 204.375 85.0972C204.375 85.099 204.375 85.1007 204.375 85.1025C204.375 85.1043 204.375 85.1061 204.375 85.1079C204.375 85.1097 204.375 85.1115 204.375 85.1133C204.375 85.1151 204.375 85.1169 204.375 85.1187C204.375 85.1204 204.375 85.1222 204.375 85.124C204.375 85.1258 204.375 85.1276 204.375 85.1294C204.375 85.1312 204.375 85.133 204.375 85.1348C204.375 85.1366 204.375 85.1383 204.375 85.1401C204.375 85.1419 204.375 85.1437 204.375 85.1455C204.375 85.1473 204.375 85.1491 204.375 85.1509C204.375 85.1527 204.375 85.1545 204.375 85.1562C204.375 85.158 204.375 85.1598 204.375 85.1616C204.375 85.1634 204.375 85.1652 204.375 85.167C204.375 85.1688 204.375 85.1706 204.375 85.1724C204.375 85.1742 204.375 85.1759 204.375 85.1777C204.375 85.1795 204.375 85.1813 204.375 85.1831C204.375 85.1849 204.375 85.1867 204.375 85.1885C204.375 85.1903 204.375 85.1921 204.375 85.1938C204.375 85.1956 204.375 85.1974 204.375 85.1992C204.375 85.201 204.375 85.2028 204.375 85.2046C204.375 85.2064 204.375 85.2082 204.375 85.21C204.375 85.2118 204.375 85.2135 204.375 85.2153C204.375 85.2171 204.375 85.2189 204.375 85.2207C204.375 85.2225 204.375 85.2243 204.375 85.2261C204.375 85.2279 204.375 85.2297 204.375 85.2314C204.375 85.2332 204.375 85.235 204.375 85.2368C204.375 85.2386 204.375 85.2404 204.375 85.2422C204.375 85.244 204.375 85.2458 204.375 85.2476C204.375 85.2493 204.375 85.2511 204.375 85.2529C204.375 85.2547 204.375 85.2565 204.375 85.2583C204.375 85.2601 204.375 85.2619 204.375 85.2637C204.375 85.2655 204.375 85.2673 204.375 85.269C204.375 85.2708 204.375 85.2726 204.375 85.2744C204.375 85.2762 204.375 85.278 204.375 85.2798C204.375 85.2816 204.375 85.2834 204.375 85.2852C204.375 85.2869 204.375 85.2887 204.375 85.2905C204.375 85.2923 204.375 85.2941 204.375 85.2959C204.375 85.2977 204.375 85.2995 204.375 85.3013C204.375 85.3031 204.375 85.3049 204.375 85.3066C204.375 85.3084 204.375 85.3102 204.375 85.312C204.375 85.3138 204.375 85.3156 204.375 85.3174C204.375 85.3192 204.375 85.321 204.375 85.3228C204.375 85.3245 204.375 85.3263 204.375 85.3281C204.375 85.3299 204.375 85.3317 204.375 85.3335C204.375 85.3353 204.375 85.3371 204.375 85.3389C204.375 85.3407 204.375 85.3424 204.375 85.3442C204.375 85.346 204.375 85.3478 204.375 85.3496C204.375 85.3514 204.375 85.3532 204.375 85.355C204.375 85.3568 204.375 85.3586 204.375 85.3604C204.375 85.3621 204.375 85.3639 204.375 85.3657C204.375 85.3675 204.375 85.3693 204.375 85.3711C204.375 85.3729 204.375 85.3747 204.375 85.3765C204.375 85.3783 204.375 85.38 204.375 85.3818C204.375 85.3836 204.375 85.3854 204.375 85.3872C204.375 85.389 204.375 85.3908 204.375 85.3926C204.375 85.3944 204.375 85.3962 204.375 85.3979C204.375 85.3997 204.375 85.4015 204.375 85.4033C204.375 85.4051 204.375 85.4069 204.375 85.4087C204.375 85.4105 204.375 85.4123 204.375 85.4141C204.375 85.4159 204.375 85.4176 204.375 85.4194C204.375 85.4212 204.375 85.423 204.375 85.4248C204.375 85.4266 204.375 85.4284 204.375 85.4302C204.375 85.432 204.375 85.4338 204.375 85.4355C204.375 85.4373 204.375 85.4391 204.375 85.4409C204.375 85.4427 204.375 85.4445 204.375 85.4463C204.375 85.4481 204.375 85.4499 204.375 85.4517C204.375 85.4535 204.375 85.4552 204.375 85.457C204.375 85.4588 204.375 85.4606 204.375 85.4624C204.375 85.4642 204.375 85.466 204.375 85.4678C204.375 85.4696 204.375 85.4714 204.375 85.4731C204.375 85.4749 204.375 85.4767 204.375 85.4785C204.375 85.4803 204.375 85.4821 204.375 85.4839C204.375 85.4857 204.375 85.4875 204.375 85.4893C204.375 85.491 204.375 85.4928 204.375 85.4946C204.375 85.4964 204.375 85.4982 204.375 85.5H206.375H208.375C208.375 85.4982 208.375 85.4964 208.375 85.4946C208.375 85.4928 208.375 85.491 208.375 85.4893C208.375 85.4875 208.375 85.4857 208.375 85.4839C208.375 85.4821 208.375 85.4803 208.375 85.4785C208.375 85.4767 208.375 85.4749 208.375 85.4731C208.375 85.4714 208.375 85.4696 208.375 85.4678C208.375 85.466 208.375 85.4642 208.375 85.4624C208.375 85.4606 208.375 85.4588 208.375 85.457C208.375 85.4552 208.375 85.4535 208.375 85.4517C208.375 85.4499 208.375 85.4481 208.375 85.4463C208.375 85.4445 208.375 85.4427 208.375 85.4409C208.375 85.4391 208.375 85.4373 208.375 85.4355C208.375 85.4338 208.375 85.432 208.375 85.4302C208.375 85.4284 208.375 85.4266 208.375 85.4248C208.375 85.423 208.375 85.4212 208.375 85.4194C208.375 85.4176 208.375 85.4159 208.375 85.4141C208.375 85.4123 208.375 85.4105 208.375 85.4087C208.375 85.4069 208.375 85.4051 208.375 85.4033C208.375 85.4015 208.375 85.3997 208.375 85.3979C208.375 85.3962 208.375 85.3944 208.375 85.3926C208.375 85.3908 208.375 85.389 208.375 85.3872C208.375 85.3854 208.375 85.3836 208.375 85.3818C208.375 85.38 208.375 85.3783 208.375 85.3765C208.375 85.3747 208.375 85.3729 208.375 85.3711C208.375 85.3693 208.375 85.3675 208.375 85.3657C208.375 85.3639 208.375 85.3621 208.375 85.3604C208.375 85.3586 208.375 85.3568 208.375 85.355C208.375 85.3532 208.375 85.3514 208.375 85.3496C208.375 85.3478 208.375 85.346 208.375 85.3442C208.375 85.3424 208.375 85.3407 208.375 85.3389C208.375 85.3371 208.375 85.3353 208.375 85.3335C208.375 85.3317 208.375 85.3299 208.375 85.3281C208.375 85.3263 208.375 85.3245 208.375 85.3228C208.375 85.321 208.375 85.3192 208.375 85.3174C208.375 85.3156 208.375 85.3138 208.375 85.312C208.375 85.3102 208.375 85.3084 208.375 85.3066C208.375 85.3049 208.375 85.3031 208.375 85.3013C208.375 85.2995 208.375 85.2977 208.375 85.2959C208.375 85.2941 208.375 85.2923 208.375 85.2905C208.375 85.2887 208.375 85.2869 208.375 85.2852C208.375 85.2834 208.375 85.2816 208.375 85.2798C208.375 85.278 208.375 85.2762 208.375 85.2744C208.375 85.2726 208.375 85.2708 208.375 85.269C208.375 85.2673 208.375 85.2655 208.375 85.2637C208.375 85.2619 208.375 85.2601 208.375 85.2583C208.375 85.2565 208.375 85.2547 208.375 85.2529C208.375 85.2511 208.375 85.2493 208.375 85.2476C208.375 85.2458 208.375 85.244 208.375 85.2422C208.375 85.2404 208.375 85.2386 208.375 85.2368C208.375 85.235 208.375 85.2332 208.375 85.2314C208.375 85.2297 208.375 85.2279 208.375 85.2261C208.375 85.2243 208.375 85.2225 208.375 85.2207C208.375 85.2189 208.375 85.2171 208.375 85.2153C208.375 85.2135 208.375 85.2118 208.375 85.21C208.375 85.2082 208.375 85.2064 208.375 85.2046C208.375 85.2028 208.375 85.201 208.375 85.1992C208.375 85.1974 208.375 85.1956 208.375 85.1938C208.375 85.1921 208.375 85.1903 208.375 85.1885C208.375 85.1867 208.375 85.1849 208.375 85.1831C208.375 85.1813 208.375 85.1795 208.375 85.1777C208.375 85.1759 208.375 85.1742 208.375 85.1724C208.375 85.1706 208.375 85.1688 208.375 85.167C208.375 85.1652 208.375 85.1634 208.375 85.1616C208.375 85.1598 208.375 85.158 208.375 85.1562C208.375 85.1545 208.375 85.1527 208.375 85.1509C208.375 85.1491 208.375 85.1473 208.375 85.1455C208.375 85.1437 208.375 85.1419 208.375 85.1401C208.375 85.1383 208.375 85.1366 208.375 85.1348C208.375 85.133 208.375 85.1312 208.375 85.1294C208.375 85.1276 208.375 85.1258 208.375 85.124C208.375 85.1222 208.375 85.1204 208.375 85.1187C208.375 85.1169 208.375 85.1151 208.375 85.1133C208.375 85.1115 208.375 85.1097 208.375 85.1079C208.375 85.1061 208.375 85.1043 208.375 85.1025C208.375 85.1007 208.375 85.099 208.375 85.0972C208.375 85.0954 208.375 85.0936 208.375 85.0918C208.375 85.09 208.375 85.0882 208.375 85.0864C208.375 85.0846 208.375 85.0828 208.375 85.0811C208.375 85.0793 208.375 85.0775 208.375 85.0757C208.375 85.0739 208.375 85.0721 208.375 85.0703C208.375 85.0685 208.375 85.0667 208.375 85.0649C208.375 85.0632 208.375 85.0614 208.375 85.0596C208.375 85.0578 208.375 85.056 208.375 85.0542C208.375 85.0524 208.375 85.0506 208.375 85.0488C208.375 85.047 208.375 85.0452 208.375 85.0435C208.375 85.0417 208.375 85.0399 208.375 85.0381C208.375 85.0363 208.375 85.0345 208.375 85.0327C208.375 85.0309 208.375 85.0291 208.375 85.0273C208.375 85.0256 208.375 85.0238 208.375 85.022C208.375 85.0202 208.375 85.0184 208.375 85.0166C208.375 85.0148 208.375 85.013 208.375 85.0112C208.375 85.0094 208.375 85.0076 208.375 85.0059C208.375 85.0041 208.375 85.0023 208.375 85.0005C208.375 84.9987 208.375 84.9969 208.375 84.9951C208.375 84.9933 208.375 84.9915 208.375 84.9897C208.375 84.988 208.375 84.9862 208.375 84.9844C208.375 84.9826 208.375 84.9808 208.375 84.979C208.375 84.9772 208.375 84.9754 208.375 84.9736C208.375 84.9718 208.375 84.9701 208.375 84.9683C208.375 84.9665 208.375 84.9647 208.375 84.9629C208.375 84.9611 208.375 84.9593 208.375 84.9575C208.375 84.9557 208.375 84.9539 208.375 84.9521C208.375 84.9504 208.375 84.9486 208.375 84.9468C208.375 84.945 208.375 84.9432 208.375 84.9414C208.375 84.9396 208.375 84.9378 208.375 84.936C208.375 84.9342 208.375 84.9325 208.375 84.9307C208.375 84.9289 208.375 84.9271 208.375 84.9253C208.375 84.9235 208.375 84.9217 208.375 84.9199C208.375 84.9181 208.375 84.9163 208.375 84.9146C208.375 84.9128 208.375 84.911 208.375 84.9092C208.375 84.9074 208.375 84.9056 208.375 84.9038C208.375 84.902 208.375 84.9002 208.375 84.8984C208.375 84.8966 208.375 84.8949 208.375 84.8931C208.375 84.8913 208.375 84.8895 208.375 84.8877C208.375 84.8859 208.375 84.8841 208.375 84.8823C208.375 84.8805 208.375 84.8787 208.375 84.877C208.375 84.8752 208.375 84.8734 208.375 84.8716C208.375 84.8698 208.375 84.868 208.375 84.8662C208.375 84.8644 208.375 84.8626 208.375 84.8608C208.375 84.859 208.375 84.8573 208.375 84.8555C208.375 84.8537 208.375 84.8519 208.375 84.8501C208.375 84.8483 208.375 84.8465 208.375 84.8447C208.375 84.8429 208.375 84.8411 208.375 84.8394C208.375 84.8376 208.375 84.8358 208.375 84.834C208.375 84.8322 208.375 84.8304 208.375 84.8286C208.375 84.8268 208.375 84.825 208.375 84.8232C208.375 84.8215 208.375 84.8197 208.375 84.8179C208.375 84.8161 208.375 84.8143 208.375 84.8125C208.375 84.8107 208.375 84.8089 208.375 84.8071C208.375 84.8053 208.375 84.8035 208.375 84.8018C208.375 84.8 208.375 84.7982 208.375 84.7964C208.375 84.7946 208.375 84.7928 208.375 84.791C208.375 84.7892 208.375 84.7874 208.375 84.7856C208.375 84.7839 208.375 84.7821 208.375 84.7803C208.375 84.7785 208.375 84.7767 208.375 84.7749C208.375 84.7731 208.375 84.7713 208.375 84.7695C208.375 84.7677 208.375 84.766 208.375 84.7642C208.375 84.7624 208.375 84.7606 208.375 84.7588C208.375 84.757 208.375 84.7552 208.375 84.7534C208.375 84.7516 208.375 84.7498 208.375 84.748C208.375 84.7463 208.375 84.7445 208.375 84.7427C208.375 84.7409 208.375 84.7391 208.375 84.7373C208.375 84.7355 208.375 84.7337 208.375 84.7319C208.375 84.7301 208.375 84.7284 208.375 84.7266C208.375 84.7248 208.375 84.723 208.375 84.7212C208.375 84.7194 208.375 84.7176 208.375 84.7158C208.375 84.714 208.375 84.7122 208.375 84.7104C208.375 84.7087 208.375 84.7069 208.375 84.7051C208.375 84.7033 208.375 84.7015 208.375 84.6997C208.375 84.6979 208.375 84.6961 208.375 84.6943C208.375 84.6925 208.375 84.6908 208.375 84.689C208.375 84.6872 208.375 84.6854 208.375 84.6836C208.375 84.6818 208.375 84.68 208.375 84.6782C208.375 84.6764 208.375 84.6746 208.375 84.6729C208.375 84.6711 208.375 84.6693 208.375 84.6675C208.375 84.6657 208.375 84.6639 208.375 84.6621C208.375 84.6603 208.375 84.6585 208.375 84.6567C208.375 84.6549 208.375 84.6532 208.375 84.6514C208.375 84.6496 208.375 84.6478 208.375 84.646C208.375 84.6442 208.375 84.6424 208.375 84.6406C208.375 84.6388 208.375 84.637 208.375 84.6353C208.375 84.6335 208.375 84.6317 208.375 84.6299C208.375 84.6281 208.375 84.6263 208.375 84.6245C208.375 84.6227 208.375 84.6209 208.375 84.6191C208.375 84.6174 208.375 84.6156 208.375 84.6138C208.375 84.612 208.375 84.6102 208.375 84.6084C208.375 84.6066 208.375 84.6048 208.375 84.603C208.375 84.6012 208.375 84.5994 208.375 84.5977C208.375 84.5959 208.375 84.5941 208.375 84.5923C208.375 84.5905 208.375 84.5887 208.375 84.5869C208.375 84.5851 208.375 84.5833 208.375 84.5815C208.375 84.5798 208.375 84.578 208.375 84.5762C208.375 84.5744 208.375 84.5726 208.375 84.5708C208.375 84.569 208.375 84.5672 208.375 84.5654C208.375 84.5636 208.375 84.5618 208.375 84.5601C208.375 84.5583 208.375 84.5565 208.375 84.5547C208.375 84.5529 208.375 84.5511 208.375 84.5493C208.375 84.5475 208.375 84.5457 208.375 84.5439C208.375 84.5422 208.375 84.5404 208.375 84.5386C208.375 84.5368 208.375 84.535 208.375 84.5332C208.375 84.5314 208.375 84.5296 208.375 84.5278C208.375 84.526 208.375 84.5243 208.375 84.5225C208.375 84.5207 208.375 84.5189 208.375 84.5171C208.375 84.5153 208.375 84.5135 208.375 84.5117C208.375 84.5099 208.375 84.5081 208.375 84.5063C208.375 84.5046 208.375 84.5028 208.375 84.501C208.375 84.4992 208.375 84.4974 208.375 84.4956C208.375 84.4938 208.375 84.492 208.375 84.4902C208.375 84.4884 208.375 84.4867 208.375 84.4849C208.375 84.4831 208.375 84.4813 208.375 84.4795C208.375 84.4777 208.375 84.4759 208.375 84.4741C208.375 84.4723 208.375 84.4705 208.375 84.4688C208.375 84.467 208.375 84.4652 208.375 84.4634C208.375 84.4616 208.375 84.4598 208.375 84.458C208.375 84.4562 208.375 84.4544 208.375 84.4526C208.375 84.4508 208.375 84.4491 208.375 84.4473C208.375 84.4455 208.375 84.4437 208.375 84.4419C208.375 84.4401 208.375 84.4383 208.375 84.4365C208.375 84.4347 208.375 84.4329 208.375 84.4312C208.375 84.4294 208.375 84.4276 208.375 84.4258C208.375 84.424 208.375 84.4222 208.375 84.4204C208.375 84.4186 208.375 84.4168 208.375 84.415C208.375 84.4132 208.375 84.4115 208.375 84.4097C208.375 84.4079 208.375 84.4061 208.375 84.4043C208.375 84.4025 208.375 84.4007 208.375 84.3989C208.375 84.3971 208.375 84.3953 208.375 84.3936C208.375 84.3918 208.375 84.39 208.375 84.3882C208.375 84.3864 208.375 84.3846 208.375 84.3828C208.375 84.381 208.375 84.3792 208.375 84.3774C208.375 84.3757 208.375 84.3739 208.375 84.3721C208.375 84.3703 208.375 84.3685 208.375 84.3667C208.375 84.3649 208.375 84.3631 208.375 84.3613C208.375 84.3595 208.375 84.3577 208.375 84.356C208.375 84.3542 208.375 84.3524 208.375 84.3506C208.375 84.3488 208.375 84.347 208.375 84.3452C208.375 84.3434 208.375 84.3416 208.375 84.3398C208.375 84.3381 208.375 84.3363 208.375 84.3345C208.375 84.3327 208.375 84.3309 208.375 84.3291C208.375 84.3273 208.375 84.3255 208.375 84.3237C208.375 84.3219 208.375 84.3201 208.375 84.3184C208.375 84.3166 208.375 84.3148 208.375 84.313C208.375 84.3112 208.375 84.3094 208.375 84.3076C208.375 84.3058 208.375 84.304 208.375 84.3022C208.375 84.3005 208.375 84.2987 208.375 84.2969C208.375 84.2951 208.375 84.2933 208.375 84.2915C208.375 84.2897 208.375 84.2879 208.375 84.2861C208.375 84.2843 208.375 84.2826 208.375 84.2808C208.375 84.279 208.375 84.2772 208.375 84.2754C208.375 84.2736 208.375 84.2718 208.375 84.27C208.375 84.2682 208.375 84.2664 208.375 84.2646C208.375 84.2629 208.375 84.2611 208.375 84.2593C208.375 84.2575 208.375 84.2557 208.375 84.2539C208.375 84.2521 208.375 84.2503 208.375 84.2485C208.375 84.2467 208.375 84.245 208.375 84.2432C208.375 84.2414 208.375 84.2396 208.375 84.2378C208.375 84.236 208.375 84.2342 208.375 84.2324C208.375 84.2306 208.375 84.2288 208.375 84.2271C208.375 84.2253 208.375 84.2235 208.375 84.2217C208.375 84.2199 208.375 84.2181 208.375 84.2163C208.375 84.2145 208.375 84.2127 208.375 84.2109C208.375 84.2091 208.375 84.2074 208.375 84.2056C208.375 84.2038 208.375 84.202 208.375 84.2002C208.375 84.1984 208.375 84.1966 208.375 84.1948C208.375 84.193 208.375 84.1912 208.375 84.1895C208.375 84.1877 208.375 84.1859 208.375 84.1841C208.375 84.1823 208.375 84.1805 208.375 84.1787C208.375 84.1769 208.375 84.1751 208.375 84.1733C208.375 84.1715 208.375 84.1698 208.375 84.168C208.375 84.1662 208.375 84.1644 208.375 84.1626C208.375 84.1608 208.375 84.159 208.375 84.1572C208.375 84.1554 208.375 84.1536 208.375 84.1519C208.375 84.1501 208.375 84.1483 208.375 84.1465C208.375 84.1447 208.375 84.1429 208.375 84.1411C208.375 84.1393 208.375 84.1375 208.375 84.1357C208.375 84.134 208.375 84.1322 208.375 84.1304C208.375 84.1286 208.375 84.1268 208.375 84.125C208.375 84.1232 208.375 84.1214 208.375 84.1196C208.375 84.1178 208.375 84.116 208.375 84.1143C208.375 84.1125 208.375 84.1107 208.375 84.1089C208.375 84.1071 208.375 84.1053 208.375 84.1035C208.375 84.1017 208.375 84.0999 208.375 84.0981C208.375 84.0964 208.375 84.0946 208.375 84.0928C208.375 84.091 208.375 84.0892 208.375 84.0874C208.375 84.0856 208.375 84.0838 208.375 84.082C208.375 84.0802 208.375 84.0785 208.375 84.0767C208.375 84.0749 208.375 84.0731 208.375 84.0713C208.375 84.0695 208.375 84.0677 208.375 84.0659C208.375 84.0641 208.375 84.0623 208.375 84.0605C208.375 84.0588 208.375 84.057 208.375 84.0552C208.375 84.0534 208.375 84.0516 208.375 84.0498C208.375 84.048 208.375 84.0462 208.375 84.0444C208.375 84.0426 208.375 84.0409 208.375 84.0391C208.375 84.0373 208.375 84.0355 208.375 84.0337C208.375 84.0319 208.375 84.0301 208.375 84.0283C208.375 84.0265 208.375 84.0247 208.375 84.0229C208.375 84.0212 208.375 84.0194 208.375 84.0176C208.375 84.0158 208.375 84.014 208.375 84.0122C208.375 84.0104 208.375 84.0086 208.375 84.0068C208.375 84.005 208.375 84.0033 208.375 84.0015C208.375 83.9997 208.375 83.9979 208.375 83.9961C208.375 83.9943 208.375 83.9925 208.375 83.9907C208.375 83.9889 208.375 83.9871 208.375 83.9854C208.375 83.9836 208.375 83.9818 208.375 83.98C208.375 83.9782 208.375 83.9764 208.375 83.9746C208.375 83.9728 208.375 83.971 208.375 83.9692C208.375 83.9674 208.375 83.9657 208.375 83.9639C208.375 83.9621 208.375 83.9603 208.375 83.9585C208.375 83.9567 208.375 83.9549 208.375 83.9531C208.375 83.9513 208.375 83.9495 208.375 83.9478C208.375 83.946 208.375 83.9442 208.375 83.9424C208.375 83.9406 208.375 83.9388 208.375 83.937C208.375 83.9352 208.375 83.9334 208.375 83.9316C208.375 83.9299 208.375 83.9281 208.375 83.9263C208.375 83.9245 208.375 83.9227 208.375 83.9209C208.375 83.9191 208.375 83.9173 208.375 83.9155C208.375 83.9137 208.375 83.9119 208.375 83.9102C208.375 83.9084 208.375 83.9066 208.375 83.9048C208.375 83.903 208.375 83.9012 208.375 83.8994C208.375 83.8976 208.375 83.8958 208.375 83.894C208.375 83.8923 208.375 83.8905 208.375 83.8887C208.375 83.8869 208.375 83.8851 208.375 83.8833C208.375 83.8815 208.375 83.8797 208.375 83.8779C208.375 83.8761 208.375 83.8743 208.375 83.8726C208.375 83.8708 208.375 83.869 208.375 83.8672C208.375 83.8654 208.375 83.8636 208.375 83.8618C208.375 83.86 208.375 83.8582 208.375 83.8564C208.375 83.8547 208.375 83.8529 208.375 83.8511C208.375 83.8493 208.375 83.8475 208.375 83.8457C208.375 83.8439 208.375 83.8421 208.375 83.8403C208.375 83.8385 208.375 83.8368 208.375 83.835C208.375 83.8332 208.375 83.8314 208.375 83.8296C208.375 83.8278 208.375 83.826 208.375 83.8242C208.375 83.8224 208.375 83.8206 208.375 83.8188C208.375 83.8171 208.375 83.8153 208.375 83.8135C208.375 83.8117 208.375 83.8099 208.375 83.8081C208.375 83.8063 208.375 83.8045 208.375 83.8027C208.375 83.8009 208.375 83.7992 208.375 83.7974C208.375 83.7956 208.375 83.7938 208.375 83.792C208.375 83.7902 208.375 83.7884 208.375 83.7866C208.375 83.7848 208.375 83.783 208.375 83.7812C208.375 83.7795 208.375 83.7777 208.375 83.7759C208.375 83.7741 208.375 83.7723 208.375 83.7705C208.375 83.7687 208.375 83.7669 208.375 83.7651C208.375 83.7633 208.375 83.7616 208.375 83.7598C208.375 83.758 208.375 83.7562 208.375 83.7544C208.375 83.7526 208.375 83.7508 208.375 83.749C208.375 83.7472 208.375 83.7454 208.375 83.7437C208.375 83.7419 208.375 83.7401 208.375 83.7383C208.375 83.7365 208.375 83.7347 208.375 83.7329C208.375 83.7311 208.375 83.7293 208.375 83.7275C208.375 83.7257 208.375 83.724 208.375 83.7222C208.375 83.7204 208.375 83.7186 208.375 83.7168C208.375 83.715 208.375 83.7132 208.375 83.7114C208.375 83.7096 208.375 83.7078 208.375 83.7061C208.375 83.7043 208.375 83.7025 208.375 83.7007C208.375 83.6989 208.375 83.6971 208.375 83.6953C208.375 83.6935 208.375 83.6917 208.375 83.6899C208.375 83.6882 208.375 83.6864 208.375 83.6846C208.375 83.6828 208.375 83.681 208.375 83.6792C208.375 83.6774 208.375 83.6756 208.375 83.6738C208.375 83.672 208.375 83.6702 208.375 83.6685C208.375 83.6667 208.375 83.6649 208.375 83.6631C208.375 83.6613 208.375 83.6595 208.375 83.6577C208.375 83.6559 208.375 83.6541 208.375 83.6523C208.375 83.6506 208.375 83.6488 208.375 83.647C208.375 83.6452 208.375 83.6434 208.375 83.6416C208.375 83.6398 208.375 83.638 208.375 83.6362C208.375 83.6344 208.375 83.6326 208.375 83.6309C208.375 83.6291 208.375 83.6273 208.375 83.6255C208.375 83.6237 208.375 83.6219 208.375 83.6201C208.375 83.6183 208.375 83.6165 208.375 83.6147C208.375 83.613 208.375 83.6112 208.375 83.6094C208.375 83.6076 208.375 83.6058 208.375 83.604C208.375 83.6022 208.375 83.6004 208.375 83.5986C208.375 83.5968 208.375 83.5951 208.375 83.5933C208.375 83.5915 208.375 83.5897 208.375 83.5879C208.375 83.5861 208.375 83.5843 208.375 83.5825C208.375 83.5807 208.375 83.5789 208.375 83.5771C208.375 83.5754 208.375 83.5736 208.375 83.5718C208.375 83.57 208.375 83.5682 208.375 83.5664C208.375 83.5646 208.375 83.5628 208.375 83.561C208.375 83.5592 208.375 83.5575 208.375 83.5557C208.375 83.5539 208.375 83.5521 208.375 83.5503C208.375 83.5485 208.375 83.5467 208.375 83.5449C208.375 83.5431 208.375 83.5413 208.375 83.5396C208.375 83.5378 208.375 83.536 208.375 83.5342C208.375 83.5324 208.375 83.5306 208.375 83.5288C208.375 83.527 208.375 83.5252 208.375 83.5234C208.375 83.5216 208.375 83.5199 208.375 83.5181C208.375 83.5163 208.375 83.5145 208.375 83.5127C208.375 83.5109 208.375 83.5091 208.375 83.5073C208.375 83.5055 208.375 83.5037 208.375 83.502C208.375 83.5002 208.375 83.4984 208.375 83.4966C208.375 83.4948 208.375 83.493 208.375 83.4912C208.375 83.4894 208.375 83.4876 208.375 83.4858C208.375 83.484 208.375 83.4823 208.375 83.4805C208.375 83.4787 208.375 83.4769 208.375 83.4751C208.375 83.4733 208.375 83.4715 208.375 83.4697C208.375 83.4679 208.375 83.4661 208.375 83.4644C208.375 83.4626 208.375 83.4608 208.375 83.459C208.375 83.4572 208.375 83.4554 208.375 83.4536C208.375 83.4518 208.375 83.45 208.375 83.4482C208.375 83.4465 208.375 83.4447 208.375 83.4429C208.375 83.4411 208.375 83.4393 208.375 83.4375C208.375 83.4357 208.375 83.4339 208.375 83.4321C208.375 83.4303 208.375 83.4285 208.375 83.4268C208.375 83.425 208.375 83.4232 208.375 83.4214C208.375 83.4196 208.375 83.4178 208.375 83.416C208.375 83.4142 208.375 83.4124 208.375 83.4106C208.375 83.4089 208.375 83.4071 208.375 83.4053C208.375 83.4035 208.375 83.4017 208.375 83.3999C208.375 83.3981 208.375 83.3963 208.375 83.3945C208.375 83.3927 208.375 83.391 208.375 83.3892C208.375 83.3874 208.375 83.3856 208.375 83.3838C208.375 83.382 208.375 83.3802 208.375 83.3784C208.375 83.3766 208.375 83.3748 208.375 83.373C208.375 83.3713 208.375 83.3695 208.375 83.3677C208.375 83.3659 208.375 83.3641 208.375 83.3623C208.375 83.3605 208.375 83.3587 208.375 83.3569C208.375 83.3551 208.375 83.3534 208.375 83.3516C208.375 83.3498 208.375 83.348 208.375 83.3462C208.375 83.3444 208.375 83.3426 208.375 83.3408C208.375 83.339 208.375 83.3372 208.375 83.3354C208.375 83.3337 208.375 83.3319 208.375 83.3301C208.375 83.3283 208.375 83.3265 208.375 83.3247C208.375 83.3229 208.375 83.3211 208.375 83.3193C208.375 83.3175 208.375 83.3158 208.375 83.314C208.375 83.3122 208.375 83.3104 208.375 83.3086C208.375 83.3068 208.375 83.305 208.375 83.3032C208.375 83.3014 208.375 83.2996 208.375 83.2979C208.375 83.2961 208.375 83.2943 208.375 83.2925C208.375 83.2907 208.375 83.2889 208.375 83.2871C208.375 83.2853 208.375 83.2835 208.375 83.2817C208.375 83.2799 208.375 83.2782 208.375 83.2764C208.375 83.2746 208.375 83.2728 208.375 83.271C208.375 83.2692 208.375 83.2674 208.375 83.2656C208.375 83.2638 208.375 83.262 208.375 83.2603C208.375 83.2585 208.375 83.2567 208.375 83.2549C208.375 83.2531 208.375 83.2513 208.375 83.2495C208.375 83.2477 208.375 83.2459 208.375 83.2441C208.375 83.2424 208.375 83.2406 208.375 83.2388C208.375 83.237 208.375 83.2352 208.375 83.2334C208.375 83.2316 208.375 83.2298 208.375 83.228C208.375 83.2262 208.375 83.2244 208.375 83.2227C208.375 83.2209 208.375 83.2191 208.375 83.2173C208.375 83.2155 208.375 83.2137 208.375 83.2119C208.375 83.2101 208.375 83.2083 208.375 83.2065C208.375 83.2048 208.375 83.203 208.375 83.2012C208.375 83.1994 208.375 83.1976 208.375 83.1958C208.375 83.194 208.375 83.1922 208.375 83.1904C208.375 83.1886 208.375 83.1868 208.375 83.1851C208.375 83.1833 208.375 83.1815 208.375 83.1797C208.375 83.1779 208.375 83.1761 208.375 83.1743C208.375 83.1725 208.375 83.1707 208.375 83.1689C208.375 83.1672 208.375 83.1654 208.375 83.1636C208.375 83.1618 208.375 83.16 208.375 83.1582C208.375 83.1564 208.375 83.1546 208.375 83.1528C208.375 83.151 208.375 83.1493 208.375 83.1475C208.375 83.1457 208.375 83.1439 208.375 83.1421C208.375 83.1403 208.375 83.1385 208.375 83.1367C208.375 83.1349 208.375 83.1331 208.375 83.1313C208.375 83.1296 208.375 83.1278 208.375 83.126C208.375 83.1242 208.375 83.1224 208.375 83.1206C208.375 83.1188 208.375 83.117 208.375 83.1152C208.375 83.1134 208.375 83.1117 208.375 83.1099C208.375 83.1081 208.375 83.1063 208.375 83.1045C208.375 83.1027 208.375 83.1009 208.375 83.0991C208.375 83.0973 208.375 83.0955 208.375 83.0938C208.375 83.092 208.375 83.0902 208.375 83.0884C208.375 83.0866 208.375 83.0848 208.375 83.083C208.375 83.0812 208.375 83.0794 208.375 83.0776C208.375 83.0758 208.375 83.0741 208.375 83.0723C208.375 83.0705 208.375 83.0687 208.375 83.0669C208.375 83.0651 208.375 83.0633 208.375 83.0615C208.375 83.0597 208.375 83.0579 208.375 83.0562C208.375 83.0544 208.375 83.0526 208.375 83.0508C208.375 83.049 208.375 83.0472 208.375 83.0454C208.375 83.0436 208.375 83.0418 208.375 83.04C208.375 83.0382 208.375 83.0365 208.375 83.0347C208.375 83.0329 208.375 83.0311 208.375 83.0293C208.375 83.0275 208.375 83.0257 208.375 83.0239C208.375 83.0221 208.375 83.0203 208.375 83.0186C208.375 83.0168 208.375 83.015 208.375 83.0132C208.375 83.0114 208.375 83.0096 208.375 83.0078C208.375 83.006 208.375 83.0042 208.375 83.0024C208.375 83.0007 208.375 82.9989 208.375 82.9971C208.375 82.9953 208.375 82.9935 208.375 82.9917C208.375 82.9899 208.375 82.9881 208.375 82.9863C208.375 82.9845 208.375 82.9827 208.375 82.981C208.375 82.9792 208.375 82.9774 208.375 82.9756C208.375 82.9738 208.375 82.972 208.375 82.9702C208.375 82.9684 208.375 82.9666 208.375 82.9648C208.375 82.9631 208.375 82.9613 208.375 82.9595C208.375 82.9577 208.375 82.9559 208.375 82.9541C208.375 82.9523 208.375 82.9505 208.375 82.9487C208.375 82.9469 208.375 82.9451 208.375 82.9434C208.375 82.9416 208.375 82.9398 208.375 82.938C208.375 82.9362 208.375 82.9344 208.375 82.9326C208.375 82.9308 208.375 82.929 208.375 82.9272C208.375 82.9255 208.375 82.9237 208.375 82.9219C208.375 82.9201 208.375 82.9183 208.375 82.9165C208.375 82.9147 208.375 82.9129 208.375 82.9111C208.375 82.9093 208.375 82.9076 208.375 82.9058C208.375 82.904 208.375 82.9022 208.375 82.9004C208.375 82.8986 208.375 82.8968 208.375 82.895C208.375 82.8932 208.375 82.8914 208.375 82.8896C208.375 82.8879 208.375 82.8861 208.375 82.8843C208.375 82.8825 208.375 82.8807 208.375 82.8789C208.375 82.8771 208.375 82.8753 208.375 82.8735C208.375 82.8717 208.375 82.87 208.375 82.8682C208.375 82.8664 208.375 82.8646 208.375 82.8628C208.375 82.861 208.375 82.8592 208.375 82.8574C208.375 82.8556 208.375 82.8538 208.375 82.8521C208.375 82.8503 208.375 82.8485 208.375 82.8467C208.375 82.8449 208.375 82.8431 208.375 82.8413C208.375 82.8395 208.375 82.8377 208.375 82.8359C208.375 82.8341 208.375 82.8324 208.375 82.8306C208.375 82.8288 208.375 82.827 208.375 82.8252C208.375 82.8234 208.375 82.8216 208.375 82.8198C208.375 82.818 208.375 82.8162 208.375 82.8145C208.375 82.8127 208.375 82.8109 208.375 82.8091C208.375 82.8073 208.375 82.8055 208.375 82.8037C208.375 82.8019 208.375 82.8001 208.375 82.7983C208.375 82.7965 208.375 82.7948 208.375 82.793C208.375 82.7912 208.375 82.7894 208.375 82.7876C208.375 82.7858 208.375 82.784 208.375 82.7822C208.375 82.7804 208.375 82.7786 208.375 82.7769C208.375 82.7751 208.375 82.7733 208.375 82.7715C208.375 82.7697 208.375 82.7679 208.375 82.7661C208.375 82.7643 208.375 82.7625 208.375 82.7607C208.375 82.759 208.375 82.7572 208.375 82.7554C208.375 82.7536 208.375 82.7518 208.375 82.75H206.375ZM206.375 85.5L204.377 85.5951C204.422 86.535 204.512 87.4565 204.647 88.3592L206.625 88.0625L208.603 87.7658C208.488 87.0019 208.411 86.215 208.373 85.4049L206.375 85.5ZM206.625 88.0625L206.345 90.0427L213.407 91.0427L213.688 89.0625L213.968 87.0823L206.905 86.0823L206.625 88.0625ZM213.688 89.0625H211.688V100H213.688H215.688V89.0625H213.688ZM213.688 100V98H191.062V100V102H213.688V100ZM191.062 100L192.924 99.2687C192.477 98.1319 192.029 96.9092 191.579 95.5998L189.688 96.25L187.796 96.9002C188.263 98.2575 188.731 99.5347 189.201 100.731L191.062 100ZM189.688 96.25L191.579 95.5998C191.157 94.3727 190.853 93.1535 190.664 91.9412L188.688 92.25L186.711 92.5588C186.939 94.0132 187.301 95.4607 187.796 96.9002L189.688 96.25ZM188.688 92.25L187.117 91.0123C185.106 93.5637 182.742 95.598 180.018 97.1325L181 98.875L181.982 100.617C185.175 98.8187 187.935 96.4363 190.258 93.4877L188.688 92.25ZM181 98.875L180.027 97.1279C177.458 98.5587 174.368 99.3125 170.688 99.3125V101.312V103.312C174.923 103.312 178.708 102.441 181.973 100.622L181 98.875ZM175.562 87.8125V89.8125C178.411 89.8125 181.129 89.1794 183.694 87.9203L182.812 86.125L181.931 84.3297C179.913 85.3206 177.797 85.8125 175.562 85.8125V87.8125ZM182.812 86.125L183.72 87.9073C186.274 86.6073 188.323 84.8707 189.789 82.6719L188.125 81.5625L186.461 80.4531C185.427 82.0043 183.935 83.3094 181.905 84.3427L182.812 86.125ZM188.125 81.5625H190.125V70.875H188.125H186.125V81.5625H188.125ZM188.125 70.875V68.875H179.125V70.875V72.875H188.125V70.875ZM179.125 70.875V68.875C174.85 68.875 171.26 69.8523 168.679 72.1236L170 73.625L171.321 75.1264C172.907 73.731 175.4 72.875 179.125 72.875V70.875ZM170 73.625L168.664 72.1369C166.229 74.3229 164.938 77.0602 164.938 80.25H166.938H168.938C168.938 78.2731 169.687 76.5937 171.336 75.1131L170 73.625ZM166.938 80.25H164.938C164.938 83.1108 165.845 85.58 167.859 87.3698L169.188 85.875L170.516 84.3802C169.53 83.5034 168.938 82.2225 168.938 80.25H166.938ZM169.188 85.875L167.903 87.408C169.913 89.0919 172.548 89.8125 175.562 89.8125V87.8125V85.8125C173.16 85.8125 171.546 85.2415 170.472 84.342L169.188 85.875ZM219.75 126H217.75V128H219.75V126ZM219.75 115L219.334 113.044L217.75 113.381V115H219.75ZM228.562 113.125L228.979 115.081L230.562 114.744V113.125H228.562ZM228.562 45.25H230.562V43.598L228.94 43.286L228.562 45.25ZM218.812 43.375H216.812V45.027L218.435 45.339L218.812 43.375ZM218.812 32.375V30.375H216.812V32.375H218.812ZM245.312 32.375L247.3 32.1541L247.103 30.375H245.312V32.375ZM246.188 40.25L244.2 40.4709L244.794 45.8188L247.837 41.3811L246.188 40.25ZM277.562 35.625L276.338 37.2065L276.349 37.2147L277.562 35.625ZM286.438 48.0625L284.57 48.7775L284.575 48.7902L286.438 48.0625ZM286.438 85.5625L284.591 84.7933L284.588 84.801L286.438 85.5625ZM277.5 97.1875L278.657 98.8185L278.661 98.8161L277.5 97.1875ZM253.812 99.375L252.94 101.175L252.956 101.183L252.973 101.19L253.812 99.375ZM246.75 93.5625L248.334 92.3418L244.75 87.6899V93.5625H246.75ZM246.75 113.125H244.75V114.744L246.334 115.081L246.75 113.125ZM255.562 115H257.562V113.381L255.979 113.044L255.562 115ZM255.562 126V128H257.562V126H255.562ZM268.125 82.125L266.421 81.078L266.416 81.0854L266.412 81.093L268.125 82.125ZM269.875 55.5625L267.959 56.1349L267.961 56.1418L269.875 55.5625ZM265.438 48.0625L264.071 49.5225L264.087 49.5375L264.103 49.5522L265.438 48.0625ZM251.25 47L250.238 45.2752L250.229 45.2801L250.221 45.285L251.25 47ZM246.75 51.8125L244.99 50.8622L244.75 51.307V51.8125H246.75ZM246.75 81.4375H244.75V81.9811L245.025 82.4499L246.75 81.4375ZM251.25 85.8125L250.309 87.5772L250.317 87.5815L250.325 87.5857L251.25 85.8125ZM219.75 126H221.75V115H219.75H217.75V126H219.75ZM219.75 115L220.166 116.956L228.979 115.081L228.562 113.125L228.146 111.169L219.334 113.044L219.75 115ZM228.562 113.125H230.562V45.25H228.562H226.562V113.125H228.562ZM228.562 45.25L228.94 43.286L219.19 41.411L218.812 43.375L218.435 45.339L228.185 47.214L228.562 45.25ZM218.812 43.375H220.812V32.375H218.812H216.812V43.375H218.812ZM218.812 32.375V34.375H245.312V32.375V30.375H218.812V32.375ZM245.312 32.375L243.325 32.5959L244.2 40.4709L246.188 40.25L248.175 40.0291L247.3 32.1541L245.312 32.375ZM246.188 40.25L247.837 41.3811C249.679 38.6953 251.872 36.6658 254.413 35.2459L253.438 33.5L252.462 31.7541C249.336 33.5009 246.696 35.9713 244.538 39.1189L246.188 40.25ZM253.438 33.5L254.413 35.2459C256.892 33.8604 259.917 33.125 263.562 33.125V31.125V29.125C259.375 29.125 255.649 29.9729 252.462 31.7541L253.438 33.5ZM263.562 31.125V33.125C268.631 33.125 272.854 34.5087 276.338 37.2064L277.562 35.625L278.787 34.0436C274.521 30.7413 269.411 29.125 263.562 29.125V31.125ZM277.562 35.625L276.349 37.2147C279.881 39.9116 282.638 43.7305 284.57 48.7775L286.438 48.0625L288.305 47.3475C286.154 41.7278 282.994 37.255 278.776 34.0353L277.562 35.625ZM286.438 48.0625L284.575 48.7902C286.548 53.8426 287.562 59.8153 287.562 66.75H289.562H291.562C291.562 59.4347 290.493 52.9491 288.3 47.3348L286.438 48.0625ZM289.562 66.75H287.562V68.0625H289.562H291.562V66.75H289.562ZM289.562 68.0625H287.562C287.562 74.5243 286.553 80.0862 284.591 84.7933L286.438 85.5625L288.284 86.3317C290.489 81.0388 291.562 74.9341 291.562 68.0625H289.562ZM286.438 85.5625L284.588 84.801C282.673 89.4525 279.915 93.0102 276.339 95.5589L277.5 97.1875L278.661 98.8161C282.918 95.7815 286.119 91.5892 288.287 86.324L286.438 85.5625ZM277.5 97.1875L276.343 95.5565C272.857 98.0301 268.59 99.3125 263.438 99.3125V101.312V103.312C269.285 103.312 274.393 101.845 278.657 98.8185L277.5 97.1875ZM263.438 101.312V99.3125C260.051 99.3125 257.138 98.7099 254.652 97.5599L253.812 99.375L252.973 101.19C256.07 102.623 259.574 103.312 263.438 103.312V101.312ZM253.812 99.375L254.685 97.5754C252.228 96.384 250.113 94.6506 248.334 92.3418L246.75 93.5625L245.166 94.7832C247.304 97.5578 249.897 99.6993 252.94 101.175L253.812 99.375ZM246.75 93.5625H244.75V113.125H246.75H248.75V93.5625H246.75ZM246.75 113.125L246.334 115.081L255.146 116.956L255.562 115L255.979 113.044L247.166 111.169L246.75 113.125ZM255.562 115H253.562V126H255.562H257.562V115H255.562ZM255.562 126V124H219.75V126V128H255.562V126ZM258 87.3125V89.3125C263.238 89.3125 267.331 87.3193 269.838 83.157L268.125 82.125L266.412 81.093C264.753 83.8474 262.095 85.3125 258 85.3125V87.3125ZM268.125 82.125L269.829 83.172C272.217 79.2862 273.312 74.1896 273.312 68.0625H271.312H269.312C269.312 73.7687 268.283 78.0471 266.421 81.078L268.125 82.125ZM271.312 68.0625H273.312V66.75H271.312H269.312V68.0625H271.312ZM271.312 66.75H273.312C273.312 62.317 272.818 58.3839 271.789 54.9832L269.875 55.5625L267.961 56.1418C268.848 59.0744 269.312 62.5997 269.312 66.75H271.312ZM269.875 55.5625L271.791 54.9901C270.753 51.515 269.107 48.6649 266.772 46.5728L265.438 48.0625L264.103 49.5522C265.768 51.0434 267.08 53.1933 267.959 56.1349L269.875 55.5625ZM265.438 48.0625L266.804 46.6025C264.42 44.3703 261.385 43.3125 257.875 43.3125V45.3125V47.3125C260.532 47.3125 262.538 48.0881 264.071 49.5225L265.438 48.0625ZM257.875 45.3125V43.3125C255.064 43.3125 252.498 43.9483 250.238 45.2752L251.25 47L252.262 48.7248C253.835 47.8017 255.686 47.3125 257.875 47.3125V45.3125ZM251.25 47L250.221 45.285C248.013 46.6099 246.271 48.4901 244.99 50.8622L246.75 51.8125L248.51 52.7628C249.479 50.9683 250.737 49.6401 252.279 48.715L251.25 47ZM246.75 51.8125H244.75V81.4375H246.75H248.75V51.8125H246.75ZM246.75 81.4375L245.025 82.4499C246.328 84.6696 248.093 86.3954 250.309 87.5772L251.25 85.8125L252.191 84.0478C250.657 83.2296 249.422 82.0388 248.475 80.4251L246.75 81.4375ZM251.25 85.8125L250.325 87.5857C252.578 88.7611 255.157 89.3125 258 89.3125V87.3125V85.3125C255.676 85.3125 253.756 84.8639 252.175 84.0393L251.25 85.8125ZM295.438 100H293.438V102H295.438V100ZM295.438 89.0625L295.021 87.1063L293.438 87.4433V89.0625H295.438ZM304.25 87.1875L304.666 89.1437L306.25 88.8067V87.1875H304.25ZM304.25 15.375H306.25V13.723L304.628 13.411L304.25 15.375ZM294.5 13.5H292.5V15.152L294.122 15.464L294.5 13.5ZM294.5 2.5V0.5H292.5V2.5H294.5ZM322.438 2.5H324.438V0.5H322.438V2.5ZM322.438 41H320.438V47.4979L324.091 42.1246L322.438 41ZM330.312 33.75L331.272 35.5049L331.28 35.5005L330.312 33.75ZM357.188 37.9375L355.68 39.2516L355.686 39.2589L355.693 39.2662L357.188 37.9375ZM363.188 87.1875H361.188V88.8043L362.768 89.1431L363.188 87.1875ZM371.938 89.0625H373.938V87.4457L372.357 87.1069L371.938 89.0625ZM371.938 100V102H373.938V100H371.938ZM337.062 100H335.062V102H337.062V100ZM337.062 89.0625L336.599 87.1169L335.062 87.4828V89.0625H337.062ZM344.938 87.1875L345.401 89.1331L346.938 88.7672V87.1875H344.938ZM327.375 46.875L328.269 48.6639L328.277 48.6602L328.284 48.6565L327.375 46.875ZM322.438 51.3125L320.768 50.2113L320.438 50.7123V51.3125H322.438ZM322.438 87.1875H320.438V88.7672L321.974 89.1331L322.438 87.1875ZM330.312 89.0625H332.312V87.4828L330.776 87.1169L330.312 89.0625ZM330.312 100V102H332.312V100H330.312ZM295.438 100H297.438V89.0625H295.438H293.438V100H295.438ZM295.438 89.0625L295.854 91.0187L304.666 89.1437L304.25 87.1875L303.834 85.2313L295.021 87.1063L295.438 89.0625ZM304.25 87.1875H306.25V15.375H304.25H302.25V87.1875H304.25ZM304.25 15.375L304.628 13.411L294.878 11.536L294.5 13.5L294.122 15.464L303.872 17.339L304.25 15.375ZM294.5 13.5H296.5V2.5H294.5H292.5V13.5H294.5ZM294.5 2.5V4.5H322.438V2.5V0.5H294.5V2.5ZM322.438 2.5H320.438V41H322.438H324.438V2.5H322.438ZM322.438 41L324.091 42.1246C326.049 39.2453 328.442 37.0519 331.272 35.5049L330.312 33.75L329.353 31.9951C325.933 33.8648 323.076 36.5047 320.784 39.8754L322.438 41ZM330.312 33.75L331.28 35.5005C334.12 33.9309 337.364 33.125 341.062 33.125V31.125V29.125C336.761 29.125 332.838 30.0691 329.345 31.9995L330.312 33.75ZM341.062 31.125V33.125C347.358 33.125 352.152 35.204 355.68 39.2516L357.188 37.9375L358.695 36.6234C354.306 31.5876 348.35 29.125 341.062 29.125V31.125ZM357.188 37.9375L355.693 39.2662C359.225 43.2406 361.188 49.6399 361.188 58.875H363.188H365.188C365.188 49.1935 363.15 41.6344 358.682 36.6088L357.188 37.9375ZM363.188 58.875H361.188V87.1875H363.188H365.188V58.875H363.188ZM363.188 87.1875L362.768 89.1431L371.518 91.0181L371.938 89.0625L372.357 87.1069L363.607 85.2319L363.188 87.1875ZM371.938 89.0625H369.938V100H371.938H373.938V89.0625H371.938ZM371.938 100V98H337.062V100V102H371.938V100ZM337.062 100H339.062V89.0625H337.062H335.062V100H337.062ZM337.062 89.0625L337.526 91.0081L345.401 89.1331L344.938 87.1875L344.474 85.2419L336.599 87.1169L337.062 89.0625ZM344.938 87.1875H346.938V58.75H344.938H342.938V87.1875H344.938ZM344.938 58.75H346.938C346.938 53.7284 346.013 49.6423 343.676 47.0387L342.188 48.375L340.699 49.7113C342.028 51.1911 342.938 54.0216 342.938 58.75H344.938ZM342.188 48.375L343.676 47.0387C341.36 44.4596 338.059 43.3125 334.125 43.3125V45.3125V47.3125C337.274 47.3125 339.349 48.207 340.699 49.7113L342.188 48.375ZM334.125 45.3125V43.3125C331.374 43.3125 328.809 43.8979 326.466 45.0935L327.375 46.875L328.284 48.6565C330.024 47.7688 331.959 47.3125 334.125 47.3125V45.3125ZM327.375 46.875L326.481 45.0861C324.151 46.2511 322.243 47.9746 320.768 50.2113L322.438 51.3125L324.107 52.4137C325.215 50.7337 326.599 49.4989 328.269 48.6639L327.375 46.875ZM322.438 51.3125H320.438V87.1875H322.438H324.438V51.3125H322.438ZM322.438 87.1875L321.974 89.1331L329.849 91.0081L330.312 89.0625L330.776 87.1169L322.901 85.2419L322.438 87.1875ZM330.312 89.0625H328.312V100H330.312H332.312V89.0625H330.312ZM330.312 100V98H295.438V100V102H330.312V100ZM392.5 97.0625L391.478 98.7814L391.489 98.7879L392.5 97.0625ZM381.25 85.25L379.479 86.1797L379.485 86.1912L381.25 85.25ZM381.062 47.8125L382.863 48.6836L382.866 48.678L381.062 47.8125ZM391.625 35.5625L390.54 33.8821L390.533 33.8867L391.625 35.5625ZM423.25 34.75L422.247 36.4801L423.25 34.75ZM436 71.625V73.625H438V71.625H436ZM396.25 71.625V69.625H394.808L394.353 70.9925L396.25 71.625ZM396.125 72L394.228 71.3675L394.097 71.7581L394.132 72.1684L396.125 72ZM398.312 79.9375L396.537 80.8572L396.546 80.8763L396.557 80.8952L398.312 79.9375ZM403.562 85.375L402.543 87.0956L402.555 87.1026L402.567 87.1095L403.562 85.375ZM421.062 86.0625L421.619 87.9834L421.628 87.9808L421.637 87.9782L421.062 86.0625ZM429.562 82.25L431.394 81.4462L430.477 79.3571L428.526 80.5396L429.562 82.25ZM434.5 93.5L435.755 95.0572L436.946 94.0971L436.331 92.6962L434.5 93.5ZM423.938 99.125L424.592 101.015L424.603 101.011L423.938 99.125ZM396.375 59.5625L394.66 60.5915L395.243 61.5625H396.375V59.5625ZM418.938 59.5625V61.5625H420.938V59.5625H418.938ZM417.812 50.875L415.927 51.5427L415.936 51.5666L415.945 51.5903L417.812 50.875ZM414.312 46.25L413.183 47.9006L413.193 47.9074L413.203 47.9141L414.312 46.25ZM402 46.5625L403.2 48.1625L403.213 48.153L403.225 48.1433L402 46.5625ZM398.062 51.75L396.228 50.9538L396.221 50.9685L396.215 50.9832L398.062 51.75ZM396.188 59.25L394.202 59.0129L394.12 59.6923L394.473 60.279L396.188 59.25ZM409.438 101.312V99.3125C403.28 99.3125 397.994 97.9647 393.511 95.3371L392.5 97.0625L391.489 98.7879C396.673 101.827 402.679 103.312 409.438 103.312V101.312ZM392.5 97.0625L393.522 95.3436C389.005 92.6567 385.511 88.9893 383.015 84.3088L381.25 85.25L379.485 86.1912C382.322 91.5107 386.328 95.7183 391.478 98.7814L392.5 97.0625ZM381.25 85.25L383.021 84.3203C380.566 79.6441 379.312 74.2624 379.312 68.125H377.312H375.312C375.312 74.821 376.684 80.8559 379.479 86.1797L381.25 85.25ZM377.312 68.125H379.312V65.625H377.312H375.312V68.125H377.312ZM377.312 65.625H379.312C379.312 59.1677 380.515 53.5365 382.863 48.6836L381.062 47.8125L379.262 46.9414C376.61 52.4218 375.312 58.6656 375.312 65.625H377.312ZM381.062 47.8125L382.866 48.678C385.218 43.7772 388.502 39.9835 392.717 37.2383L391.625 35.5625L390.533 33.8867C385.664 37.0582 381.907 41.4312 379.259 46.947L381.062 47.8125ZM391.625 35.5625L392.71 37.2429C396.927 34.5209 401.934 33.125 407.812 33.125V31.125V29.125C401.274 29.125 395.49 30.6874 390.54 33.8821L391.625 35.5625ZM407.812 31.125V33.125C413.679 33.125 418.457 34.2821 422.247 36.4801L423.25 34.75L424.253 33.0199C419.71 30.3846 414.196 29.125 407.812 29.125V31.125ZM423.25 34.75L422.247 36.4801C426.048 38.6851 428.944 41.8536 430.945 46.0487L432.75 45.1875L434.555 44.3263C432.223 39.4381 428.785 35.6482 424.253 33.0199L423.25 34.75ZM432.75 45.1875L430.945 46.0487C432.952 50.2564 434 55.4456 434 61.6875H436H438C438 55.0127 436.881 49.202 434.555 44.3263L432.75 45.1875ZM436 61.6875H434V71.625H436H438V61.6875H436ZM436 71.625V69.625H396.25V71.625V73.625H436V71.625ZM396.25 71.625L394.353 70.9925L394.228 71.3675L396.125 72L398.022 72.6325L398.147 72.2575L396.25 71.625ZM396.125 72L394.132 72.1684C394.401 75.3551 395.192 78.2617 396.537 80.8572L398.312 79.9375L400.088 79.0178C399.016 76.9466 398.349 74.5616 398.118 71.8316L396.125 72ZM398.312 79.9375L396.557 80.8952C397.979 83.5034 399.984 85.5792 402.543 87.0956L403.562 85.375L404.582 83.6544C402.641 82.5042 401.146 80.9549 400.068 78.9798L398.312 79.9375ZM403.562 85.375L402.567 87.1095C405.184 88.6118 408.274 89.3125 411.75 89.3125V87.3125V85.3125C408.809 85.3125 406.441 84.7215 404.558 83.6405L403.562 85.375ZM411.75 87.3125V89.3125C415.251 89.3125 418.544 88.8748 421.619 87.9834L421.062 86.0625L420.506 84.1416C417.831 84.9169 414.916 85.3125 411.75 85.3125V87.3125ZM421.062 86.0625L421.637 87.9782C424.725 87.0519 427.713 85.7098 430.599 83.9604L429.562 82.25L428.526 80.5396C425.912 82.1235 423.234 83.3231 420.488 84.1468L421.062 86.0625ZM429.562 82.25L427.731 83.0538L432.669 94.3038L434.5 93.5L436.331 92.6962L431.394 81.4462L429.562 82.25ZM434.5 93.5L433.245 91.9428C430.668 94.0194 427.361 95.7959 423.272 97.239L423.938 99.125L424.603 101.011C429.014 99.4541 432.748 97.4806 435.755 95.0572L434.5 93.5ZM423.938 99.125L423.283 97.2353C419.326 98.6063 414.721 99.3125 409.438 99.3125V101.312V103.312C415.07 103.312 420.132 102.56 424.592 101.015L423.938 99.125ZM396.375 59.5625V61.5625H418.938V59.5625V57.5625H396.375V59.5625ZM418.938 59.5625H420.938V57.9375H418.938H416.938V59.5625H418.938ZM418.938 57.9375H420.938C420.938 55.0151 420.54 52.4052 419.68 50.1597L417.812 50.875L415.945 51.5903C416.585 53.2615 416.938 55.3599 416.938 57.9375H418.938ZM417.812 50.875L419.698 50.2073C418.858 47.8373 417.438 45.9299 415.422 44.5859L414.312 46.25L413.203 47.9141C414.437 48.7368 415.35 49.9127 415.927 51.5427L417.812 50.875ZM414.312 46.25L415.442 44.5994C413.433 43.2251 410.941 42.625 408.125 42.625V44.625V46.625C410.393 46.625 412.025 47.1082 413.183 47.9006L414.312 46.25ZM408.125 44.625V42.625C405.333 42.625 402.842 43.3795 400.775 44.9817L402 46.5625L403.225 48.1433C404.491 47.1622 406.084 46.625 408.125 46.625V44.625ZM402 46.5625L400.8 44.9625C398.815 46.4513 397.303 48.4771 396.228 50.9538L398.062 51.75L399.897 52.5462C400.739 50.6062 401.852 49.1737 403.2 48.1625L402 46.5625ZM398.062 51.75L396.215 50.9832C395.217 53.3876 394.553 56.0702 394.202 59.0129L396.188 59.25L398.173 59.4871C398.489 56.8465 399.074 54.5291 399.91 52.5168L398.062 51.75ZM396.188 59.25L394.473 60.279L394.66 60.5915L396.375 59.5625L398.09 58.5335L397.902 58.221L396.188 59.25ZM445.812 100H443.812V102H445.812V100ZM445.812 89.0625L445.393 87.1069L443.812 87.4457V89.0625H445.812ZM454.562 87.1875L454.982 89.1431L456.562 88.8043V87.1875H454.562ZM454.562 45.25H456.562V43.6L454.943 43.2864L454.562 45.25ZM444.875 43.375H442.875V45.025L444.495 45.3386L444.875 43.375ZM444.875 32.375V30.375H442.875V32.375H444.875ZM471.562 32.375L473.556 32.2114L473.405 30.375H471.562V32.375ZM472.25 40.75L470.257 40.9136L470.257 40.9161L472.25 40.75ZM472.375 42.25L470.382 42.4161L471.019 50.0656L474.196 43.0776L472.375 42.25ZM490.938 31.4375L490.619 33.412L490.65 33.417L490.682 33.4211L490.938 31.4375ZM494.375 32.125L496.362 32.354L496.555 30.6775L494.935 30.205L494.375 32.125ZM492.438 48.9375L492.327 50.9345L494.209 51.0383L494.424 49.1665L492.438 48.9375ZM483.375 48.4375L483.485 46.4405L483.472 46.4398L483.375 48.4375ZM477.062 49.75L476.014 48.0467L476.004 48.0528L475.995 48.059L477.062 49.75ZM472.812 54.0625L471.148 52.9531L470.812 53.4569V54.0625H472.812ZM472.812 87.1875H470.812V88.8043L472.393 89.1431L472.812 87.1875ZM481.562 89.0625H483.562V87.4457L481.982 87.1069L481.562 89.0625ZM481.562 100V102H483.562V100H481.562ZM445.812 100H447.812V89.0625H445.812H443.812V100H445.812ZM445.812 89.0625L446.232 91.0181L454.982 89.1431L454.562 87.1875L454.143 85.2319L445.393 87.1069L445.812 89.0625ZM454.562 87.1875H456.562V45.25H454.562H452.562V87.1875H454.562ZM454.562 45.25L454.943 43.2864L445.255 41.4114L444.875 43.375L444.495 45.3386L454.182 47.2136L454.562 45.25ZM444.875 43.375H446.875V32.375H444.875H442.875V43.375H444.875ZM444.875 32.375V34.375H471.562V32.375V30.375H444.875V32.375ZM471.562 32.375L469.569 32.5386L470.257 40.9136L472.25 40.75L474.243 40.5864L473.556 32.2114L471.562 32.375ZM472.25 40.75L470.257 40.9161L470.382 42.4161L472.375 42.25L474.368 42.0839L474.243 40.5839L472.25 40.75ZM472.375 42.25L474.196 43.0776C475.766 39.6233 477.647 37.1511 479.775 35.5277L478.562 33.9375L477.35 32.3473C474.561 34.4739 472.317 37.5434 470.554 41.4224L472.375 42.25ZM478.562 33.9375L479.775 35.5277C481.848 33.9466 484.348 33.125 487.375 33.125V31.125V29.125C483.569 29.125 480.193 30.1784 477.35 32.3473L478.562 33.9375ZM487.375 31.125V33.125C488.332 33.125 489.412 33.2173 490.619 33.412L490.938 31.4375L491.256 29.463C489.88 29.2411 488.584 29.125 487.375 29.125V31.125ZM490.938 31.4375L490.682 33.4211C491.895 33.5776 492.936 33.7885 493.815 34.045L494.375 32.125L494.935 30.205C493.814 29.8782 492.564 29.6308 491.193 29.4539L490.938 31.4375ZM494.375 32.125L492.388 31.896L490.451 48.7085L492.438 48.9375L494.424 49.1665L496.362 32.354L494.375 32.125ZM492.438 48.9375L492.548 46.9405L483.485 46.4405L483.375 48.4375L483.265 50.4345L492.327 50.9345L492.438 48.9375ZM483.375 48.4375L483.472 46.4398C480.626 46.3021 478.085 46.7724 476.014 48.0467L477.062 49.75L478.111 51.4533C479.29 50.7276 480.958 50.3229 483.278 50.4352L483.375 48.4375ZM477.062 49.75L475.995 48.059C474.131 49.2362 472.523 50.8912 471.148 52.9531L472.812 54.0625L474.477 55.1719C475.602 53.4838 476.828 52.2638 478.13 51.441L477.062 49.75ZM472.812 54.0625H470.812V87.1875H472.812H474.812V54.0625H472.812ZM472.812 87.1875L472.393 89.1431L481.143 91.0181L481.562 89.0625L481.982 87.1069L473.232 85.2319L472.812 87.1875ZM481.562 89.0625H479.562V100H481.562H483.562V89.0625H481.562ZM481.562 100V98H445.812V100V102H481.562V100Z" fill="black" mask="url(#path-1-inside-1_1_2)"/>
</g>
</g>
<defs>
<filter id="filter0_d_1_2" x="-0.9375" y="-1.5" width="503.312" height="139.5" filterUnits="userSpaceOnUse" color-interpolation-filters="sRGB">
<feFlood flood-opacity="0" result="BackgroundImageFix"/>
<feColorMatrix in="SourceAlpha" type="matrix" values="0 0 0 0 0 0 0 0 0 0 0 0 0 0 0 0 0 0 127 0" result="hardAlpha"/>
<feMorphology radius="4" operator="dilate" in="SourceAlpha" result="effect1_dropShadow_1_2"/>
<feOffset dy="4"/>
<feGaussianBlur stdDeviation="2"/>
<feComposite in2="hardAlpha" operator="out"/>
<feColorMatrix type="matrix" values="0 0 0 0 0 0 0 0 0 0 0 0 0 0 0 0 0 0 0.25 0"/>
<feBlend mode="normal" in2="BackgroundImageFix" result="effect1_dropShadow_1_2"/>
<feBlend mode="normal" in="SourceGraphic" in2="effect1_dropShadow_1_2" result="shape"/>
</filter>
<linearGradient id="paint0_linear_1_2" x1="0" y1="50" x2="500" y2="50" gradientUnits="userSpaceOnUse">
<stop stop-color="#002CED"/>
<stop offset="0.9999" stop-color="#00FF48"/>
</linearGradient>
<clipPath id="clip0_1_2">
<rect width="500" height="130" fill="white"/>
</clipPath>
</defs>
</svg>
